<?xml version="1.0" standalone="no"?>
<!DOCTYPE svg PUBLIC "-//W3C//DTD SVG 20010904//EN"
 "http://www.w3.org/TR/2001/REC-SVG-20010904/DTD/svg10.dtd">
<svg version="1.0" xmlns="http://www.w3.org/2000/svg"
 width="1438.000000pt" height="1438.000000pt" viewBox="0 0 1438.000000 1438.000000"
 preserveAspectRatio="xMidYMid meet">
<metadata>
Created by potrace 1.11, written by Peter Selinger 2001-2013
</metadata>
<g transform="translate(0.000000,1438.000000) scale(0.100000,-0.100000)"
fill="#000000" stroke="none">
<path d="M11312 11525 c-304 -302 -552 -551 -552 -554 0 -3 59 -67 131 -141
72 -74 247 -254 388 -399 141 -146 329 -339 417 -430 193 -198 319 -328 357
-368 l27 -29 -71 -75 c-39 -41 -184 -190 -323 -333 -138 -142 -289 -297 -336
-346 -47 -48 -198 -204 -336 -346 -139 -143 -289 -297 -334 -344 -45 -47 -194
-200 -330 -340 -271 -279 -312 -321 -623 -642 -116 -120 -214 -218 -218 -218
-7 0 -735 730 -1731 1733 l-583 588 -225 -231 c-124 -128 -261 -269 -305 -315
-44 -45 -186 -191 -315 -324 -129 -133 -236 -246 -238 -250 -1 -4 179 -190
400 -413 222 -223 905 -910 1518 -1527 613 -617 1200 -1207 1303 -1311 l188
-189 477 475 c262 262 1356 1352 2430 2423 l1952 1946 -112 109 c-62 59 -165
158 -228 219 -63 60 -212 203 -330 317 -118 114 -269 259 -334 321 -157 151
-324 317 -530 530 -92 96 -280 289 -416 429 -136 140 -319 329 -407 419 l-159
164 -552 -548z"/>
<path d="M1212 10618 l-1214 -1212 2404 -2403 c1322 -1322 2411 -2408 2420
-2413 12 -7 20 -6 30 4 7 7 144 147 303 311 346 357 452 462 1055 1055 643
633 630 620 630 627 0 3 -71 76 -157 161 -87 85 -348 342 -581 571 -233 229
-425 417 -427 419 -1 2 -218 -213 -481 -477 -263 -264 -481 -477 -484 -472 -4
8 -275 288 -575 596 -130 134 -533 550 -625 645 -73 76 -371 383 -645 665 -44
45 -188 194 -320 330 -132 136 -268 277 -302 312 -35 35 -63 67 -63 71 0 4 15
21 33 38 27 26 364 372 598 615 41 43 183 189 315 325 133 137 272 280 308
318 l66 69 -532 529 c-293 290 -535 528 -538 528 -3 0 -551 -546 -1218 -1212z"/>
<path d="M6469 5439 c-409 -413 -850 -858 -979 -988 -129 -131 -240 -244 -247
-252 -10 -13 142 -169 931 -958 l943 -943 179 177 c161 159 1587 1571 1738
1721 33 33 67 68 74 76 10 13 -123 151 -928 956 -517 517 -946 945 -954 951
-10 9 -173 -151 -757 -740z"/>
</g>
</svg>
