<?xml version="1.0" encoding="utf-8"?>
<!-- Generator: Adobe Illustrator 24.3.0, SVG Export Plug-In . SVG Version: 6.00 Build 0)  -->
<svg version="1.1" id="Layer_1" xmlns="http://www.w3.org/2000/svg" xmlns:xlink="http://www.w3.org/1999/xlink" x="0px" y="0px"
	 viewBox="0 0 297.4 297.4" style="enable-background:new 0 0 297.4 297.4;" xml:space="preserve">
<style type="text/css">
	.st0{fill:#F4E4C3;}
	.st1{fill:#659CC8;}
</style>
<path class="st0" d="M137.4,195.5c0,0.1,0,0.3,0.1,0.4c0.6,0.1,1.1,0.2,1.7,0.4v-0.4C138.6,195.7,138,195.6,137.4,195.5z"/>
<path class="st0" d="M174.7,284.1v0.4c0.2,0,0.4-0.1,0.6-0.1l-0.3-0.3H174.7z"/>
<g id="innerPlanets">
	<path class="st1" d="M149,185.8c-5.6,0-10.2,4.6-10.2,10.2c0,0.2,0,0.5,0,0.7c0.6,0.3,0.9,0.7,0.3,1.3c0.6-0.6,0.2-0.9-0.3-1.3
		c0.4,5.6,5.3,9.9,10.9,9.5c5.6-0.4,9.9-5.3,9.5-10.9C158.8,190,154.4,185.8,149,185.8L149,185.8z M149,204.8
		c-4.8,0-8.8-3.9-8.8-8.8s3.9-8.8,8.8-8.8s8.8,3.9,8.8,8.8l0,0C157.8,200.9,153.9,204.8,149,204.8L149,204.8z"/>
	<path class="st1" d="M137.4,195.5c-7.7-1.9-14.7-5.7-20.6-11c-0.1,0.1-0.2,0.1-0.4,0.2c6,5.4,13.2,9.3,21,11.2
		C137.4,195.7,137.4,195.6,137.4,195.5z"/>
	<path class="st1" d="M185.5,116.8c-17.6-20.2-48.2-22.4-68.4-4.8c-19.8,17.1-22.4,46.9-5.9,67.2c0-0.1,0.2-0.2,0.3-0.2l-0.1-0.1
		l0,0c-16.7-20.7-13.5-51,7.2-67.7c20.1-16.3,49.5-13.7,66.5,5.8C185.3,116.8,185.4,116.8,185.5,116.8z"/>
	<path class="st1" d="M189.9,122.7c-0.1,0-0.2,0.1-0.3,0.2c14.3,22.4,7.8,52.1-14.5,66.4c-5.1,3.3-10.7,5.5-16.7,6.7v0.4
		c26.3-5.1,43.4-30.6,38.3-56.8C195.5,133.5,193.2,127.8,189.9,122.7z"/>
	<path class="st1" d="M187.8,124.1c-2.3,0-4.2-1.9-4.2-4.2s1.9-4.2,4.2-4.2s4.2,1.9,4.2,4.2C192,122.2,190.1,124.1,187.8,124.1
		L187.8,124.1z M187.8,117.1c-1.5,0-2.8,1.2-2.8,2.8s1.2,2.8,2.8,2.8c1.5,0,2.8-1.2,2.8-2.8l0,0
		C190.5,118.3,189.3,117.1,187.8,117.1z"/>
	<path class="st1" d="M113.7,186c-2.3,0-4.3-1.9-4.3-4.2s1.9-4.3,4.2-4.3c2.3,0,4.3,1.9,4.3,4.2l0,0C117.9,184.1,116,186,113.7,186z
		 M113.7,179c-1.5,0-2.8,1.2-2.8,2.8c0,1.5,1.2,2.8,2.8,2.8c1.5,0,2.8-1.2,2.8-2.8l0,0C116.4,180.3,115.2,179.1,113.7,179L113.7,179
		z"/>
</g>
</svg>
