<svg xmlns="http://www.w3.org/2000/svg" viewBox="0 0 277.4 312"><defs><style>.cls-1{fill:#78af9f;}.cls-2,.cls-5{fill:#f4e4c3;}.cls-3{fill:#dda032;}.cls-4{fill:#659cc8;}.cls-5,.cls-6{stroke:#c13f21;}.cls-6,.cls-7{fill:#c13f21;}</style></defs><g id="Layer_2" data-name="Layer 2"><g id="Layer_1-2" data-name="Layer 1"><path class="cls-1" d="M138.64,222.89A7.39,7.39,0,1,1,146,215.5h0A7.4,7.4,0,0,1,138.64,222.89Zm0-13.3a5.92,5.92,0,1,0,5.91,5.93v0A5.93,5.93,0,0,0,138.64,209.59Z"/><path class="cls-2" d="M127,185.38a.45.45,0,0,0,.06.39c.56.14,1.13.25,1.7.37v-.38Z"/><path class="cls-1" d="M138.64,49.5a89.12,89.12,0,1,0,89.12,89.12h0A89.22,89.22,0,0,0,138.64,49.5Zm0,177.87a88.75,88.75,0,1,1,88.75-88.75,88.75,88.75,0,0,1-88.75,88.75Z"/><path class="cls-3" d="M213.15,64.13c-101.46-95.53-244.54,47.6-149,149C165.59,308.68,308.67,165.55,213.15,64.13ZM138.64,243.65c-138-2.48-138-207.56,0-210C276.64,36.11,276.62,241.19,138.64,243.65Z"/><path class="cls-2" d="M164.26,274v.39a2.85,2.85,0,0,0,.65-.11l-.34-.34Z"/><path class="cls-3" d="M138.64,47.89a4.84,4.84,0,1,1,4.86-4.83,4.84,4.84,0,0,1-4.86,4.83Zm0-8.56a3.73,3.73,0,1,0,3.73,3.73h0A3.73,3.73,0,0,0,138.64,39.33Z"/><g id="innerPlanets"><path class="cls-4" d="M138.64,175.72a10.24,10.24,0,0,0-10.22,10.22v.71c.56.31.94.66.34,1.26.6-.6.22-.95-.34-1.26a10.22,10.22,0,1,0,10.19-10.93Zm0,19a8.75,8.75,0,1,1,8.75-8.75h0a8.76,8.76,0,0,1-8.75,8.72Z"/><path class="cls-4" d="M127,185.38a48.15,48.15,0,0,1-20.59-11,.62.62,0,0,1-.37.16,48.49,48.49,0,0,0,21,11.2A.5.5,0,0,1,127,185.38Z"/><path class="cls-4" d="M175.1,106.67A48.49,48.49,0,0,0,100.82,169a.39.39,0,0,1,.28-.23l-.06-.07h0a48.13,48.13,0,0,1,73.73-61.86A.53.53,0,0,1,175.1,106.67Z"/><path class="cls-4" d="M179.5,112.58a.59.59,0,0,0-.32.17A48.08,48.08,0,0,1,148,185.88v.38a48.45,48.45,0,0,0,31.52-73.68Z"/><path class="cls-4" d="M177.39,114a4.24,4.24,0,1,1,4.24-4.24,4.24,4.24,0,0,1-4.24,4.24Zm0-7a2.76,2.76,0,1,0,2.76,2.76h0A2.77,2.77,0,0,0,177.39,107Z"/><path class="cls-4" d="M103.29,175.94a4.24,4.24,0,1,1,4.21-4.27v0A4.24,4.24,0,0,1,103.29,175.94Zm0-7a2.76,2.76,0,1,0,2.75,2.77v0a2.77,2.77,0,0,0-2.75-2.74Z"/></g><path class="cls-3" d="M148.37,73.91a27.41,27.41,0,0,1-3.05-3.41l-3.15-3.85-3.54-4.42h0c-1.41,1.61-2.75,3.15-4,4.55l-3.37,3.79A28.67,28.67,0,0,1,128,73.93a29.23,29.23,0,0,1,2.85-3.71c.93-1.1,2-2.42,3.25-3.89l4.18-4.83.36-.41c1.44,1.83,2.81,3.57,4,5.16l3,4A27.77,27.77,0,0,1,148.37,73.91Z"/><path class="cls-3" d="M145.5,84.91a14.78,14.78,0,0,1-2.2-2.41l-2.25-2.77-2.42-3.07h0l-2.7,3.16L133.5,82.5a15.62,15.62,0,0,1-2.35,2.39,14.59,14.59,0,0,1,1.95-2.73l2.27-2.82,3-3.63.23-.28,2.94,3.84c.79,1.08,1.51,2,2.12,2.86A15.05,15.05,0,0,1,145.5,84.91Z"/><path class="cls-5" d="M138.35,28.5c-16-.09-16-24.4,0-24.48C154.35,4.11,154.35,28.42,138.35,28.5Zm0-23.38c-14.44-.2-14.44,22.47,0,22.27,14.44.21,14.44-22.46,0-22.26Z"/><path class="cls-1" d="M138.64,237.55a3.54,3.54,0,1,1,3.54-3.54h0A3.56,3.56,0,0,1,138.64,237.55Zm0-5.6A2.06,2.06,0,1,0,140.7,234h0A2.06,2.06,0,0,0,138.64,232Z"/><path class="cls-6" d="M138.89,311.5a4.57,4.57,0,1,1,.09,0Zm0-7.64a3.08,3.08,0,1,0,3.08,3.08h0a3.08,3.08,0,0,0-3-3.12h0Z"/><path class="cls-2" d="M277.4,121.1a1.91,1.91,0,1,1-1.91-1.91,1.9,1.9,0,0,1,1.91,1.91Z"/><path class="cls-2" d="M46.24,37.78a1.72,1.72,0,1,1-1.74-1.73,1.72,1.72,0,0,1,1.74,1.73Z"/><path class="cls-2" d="M41,105.14A2.13,2.13,0,1,1,38.89,103h0A2.12,2.12,0,0,1,41,105.13Z"/><path class="cls-7" d="M56.88,248a2.29,2.29,0,1,1-2.29-2.29h0A2.29,2.29,0,0,1,56.88,248Z"/><g id="outerPlanets"><path class="cls-6" d="M236.32,41A138.14,138.14,0,1,0,111.05,274v-.4h0C48.27,260.84.87,205.17.87,138.64.87,62.67,62.67.87,138.64.87s137.77,61.8,137.77,137.77c0,67.11-48.22,123.15-111.84,135.31l.34.34A138.17,138.17,0,0,0,236.32,41Z"/><path class="cls-6" d="M138.89,288.18a14.91,14.91,0,1,1,14.9-14.92h0A14.93,14.93,0,0,1,138.89,288.18Zm0-28.33a13.43,13.43,0,1,0,13.42,13.44v0A13.43,13.43,0,0,0,138.89,259.85Z"/><path class="cls-6" d="M150.34,282.86c-13,0-32.57-1.25-38-6.31a4.51,4.51,0,0,1-1.58-3.28,4.44,4.44,0,0,1,1.49-3.36c3.67-3.46,13.19-2.91,13.59-2.88l-.09,1.47c-.09,0-9.28-.54-12.49,2.48a2.9,2.9,0,0,0-.33,4.09,3.16,3.16,0,0,0,.42.4c6,5.59,33.11,6.47,45.65,5.69,5.11-.32,7-1.93,7.05-3.21.09-1.83-3.34-5.11-13.15-6.66l.23-1.46c8.92,1.41,14.57,4.62,14.4,8.19-.12,2.56-3.27,4.29-8.44,4.61C157,282.77,153.9,282.86,150.34,282.86Z"/></g></g></g></svg>