<svg xmlns="http://www.w3.org/2000/svg" viewBox="0 0 178.24 188.05"><defs><style>.cls-1{fill:#78af9f;}</style></defs><g id="Layer_2" data-name="Layer 2"><g id="Layer_1-2" data-name="Layer 1"><path class="cls-1" d="M89.12,173.39A7.39,7.39,0,1,1,96.51,166h0A7.4,7.4,0,0,1,89.12,173.39Zm0-13.3A5.92,5.92,0,1,0,95,166v0A5.93,5.93,0,0,0,89.12,160.09Z"/><path class="cls-1" d="M89.12,0a89.12,89.12,0,1,0,89.12,89.12h0A89.22,89.22,0,0,0,89.12,0Zm0,177.87a88.75,88.75,0,1,1,88.75-88.75,88.74,88.74,0,0,1-88.75,88.75Z"/><path class="cls-1" d="M89.12,188.05a3.54,3.54,0,1,1,3.54-3.54h0A3.56,3.56,0,0,1,89.12,188.05Zm0-5.6a2.06,2.06,0,1,0,2.06,2.06h0A2.06,2.06,0,0,0,89.12,182.45Z"/></g></g></svg>