<?xml version="1.0" encoding="utf-8"?>
<!-- Generator: Adobe Illustrator 24.3.0, SVG Export Plug-In . SVG Version: 6.00 Build 0)  -->
<svg version="1.1" id="Layer_1" xmlns="http://www.w3.org/2000/svg" xmlns:xlink="http://www.w3.org/1999/xlink" x="0px" y="0px"
	 viewBox="0 0 297.4 297.4" style="enable-background:new 0 0 297.4 297.4;" xml:space="preserve">
<style type="text/css">
	.st0{fill:#F4E4C3;}
	.st1{fill:#78AF9F;}
</style>
<path class="st0" d="M137.4,195.5c0,0.1,0,0.3,0.1,0.4c0.6,0.1,1.1,0.2,1.7,0.4v-0.4C138.6,195.7,138,195.6,137.4,195.5z"/>
<path class="st0" d="M174.7,284.1v0.4c0.2,0,0.4-0.1,0.6-0.1l-0.3-0.3H174.7z"/>
<path class="st1" d="M149,59.6c-49.2,0-89.1,39.9-89.1,89.1s39.9,89.1,89.1,89.1s89.1-39.9,89.1-89.1l0,0
	C238.1,99.5,198.2,59.7,149,59.6z M149,237.5c-49,0-88.8-39.7-88.8-88.8S99.9,59.9,149,59.9s88.8,39.7,88.8,88.8
	C237.7,197.7,198,237.4,149,237.5L149,237.5z"/>
<path class="st1" d="M235,135.2c-4.1,0-7.4-3.3-7.4-7.4c0-4.1,3.3-7.4,7.4-7.4s7.4,3.3,7.4,7.4l0,0
	C242.4,131.9,239.1,135.2,235,135.2z M235,121.9c-3.3,0-5.9,2.6-5.9,5.9c0,3.3,2.6,5.9,5.9,5.9c3.3,0,5.9-2.6,5.9-5.9l0,0
	C240.9,124.5,238.3,121.9,235,121.9z"/>
<path class="st1" d="M64.7,123.9c-2,0-3.5-1.6-3.5-3.5s1.6-3.5,3.5-3.5s3.5,1.6,3.5,3.5l0,0C68.3,122.3,66.7,123.8,64.7,123.9z
	 M64.7,118.2c-1.1,0-2.1,0.9-2.1,2.1s0.9,2.1,2.1,2.1c1.1,0,2.1-0.9,2.1-2.1l0,0C66.8,119.2,65.9,118.2,64.7,118.2z"/>
</svg>
