<?xml version="1.0" encoding="utf-8"?>
<!-- Generator: Adobe Illustrator 24.3.0, SVG Export Plug-In . SVG Version: 6.00 Build 0)  -->
<svg version="1.1" id="Layer_1" xmlns="http://www.w3.org/2000/svg" xmlns:xlink="http://www.w3.org/1999/xlink" x="0px" y="0px"
	 viewBox="0 0 297.4 297.4" style="enable-background:new 0 0 297.4 297.4;" xml:space="preserve">
<style type="text/css">
	.st0{fill:#F4E4C3;}
	.st1{fill:#DDA032;}
	.st2{fill:none;stroke:#DDA032;stroke-miterlimit:10;}
</style>
<path class="st0" d="M174.7,284.1v0.4c0.2,0,0.4-0.1,0.6-0.1l-0.3-0.3H174.7z"/>
<path class="st1" d="M220.5,71.4c-2.7,0-4.8-2.2-4.8-4.9c0-2.7,2.2-4.8,4.9-4.8s4.8,2.2,4.8,4.8C225.4,69.2,223.2,71.4,220.5,71.4
	L220.5,71.4z M220.5,62.8c-2.1,0-3.7,1.7-3.7,3.7c0,2.1,1.7,3.7,3.7,3.7c2.1,0,3.7-1.7,3.7-3.7l0,0
	C224.3,64.5,222.6,62.8,220.5,62.8z"/>
<path class="st1" d="M158.8,74.3c-1.1-1.1-2.1-2.2-3-3.4l-3.1-3.8l-3.5-4.4l0,0c-1.4,1.6-2.8,3.2-4,4.6l-3.4,3.8
	c-1,1.2-2.1,2.3-3.2,3.4c0.9-1.3,1.8-2.5,2.9-3.7c0.9-1.1,2-2.4,3.2-3.9l4.2-4.8l0.4-0.4c1.4,1.8,2.8,3.6,4,5.2l3,4
	C157.1,71.8,158,73,158.8,74.3z"/>
<path class="st1" d="M155.9,85.3c-0.8-0.7-1.6-1.5-2.2-2.4l-2.2-2.8l-2.4-3.1l0,0l-2.7,3.2l-2.5,2.7c-0.7,0.9-1.5,1.7-2.4,2.4
	c0.5-1,1.2-1.9,1.9-2.7l2.3-2.8c0.9-1.1,1.9-2.3,3-3.6l0.2-0.3l2.9,3.8c0.8,1.1,1.5,2,2.1,2.9C154.8,83.4,155.4,84.3,155.9,85.3z"/>
<circle class="st2" cx="148.7" cy="148.7" r="109.1"/>
</svg>
