<svg xmlns="http://www.w3.org/2000/svg" viewBox="0 0 211.92 211.92"><defs><style>.cls-1{fill:#dda032;}</style></defs><g id="Layer_2" data-name="Layer 2"><g id="Layer_1-2" data-name="Layer 1"><path class="cls-1" d="M180.46,31.45C79-64.08-64.08,79.05,31.46,180.45,132.9,276,276,132.87,180.46,31.45ZM106,211C-32,208.49-32,3.41,106,1,244,3.43,243.93,208.51,106,211Z"/><path class="cls-1" d="M106,15.21a4.84,4.84,0,1,1,4.86-4.83A4.84,4.84,0,0,1,106,15.21Zm0-8.56a3.73,3.73,0,1,0,3.73,3.73h0A3.73,3.73,0,0,0,106,6.65Z"/><path class="cls-1" d="M115.68,41.23a29.11,29.11,0,0,1-3.05-3.41L109.48,34l-3.54-4.42h0c-1.41,1.61-2.75,3.15-4,4.55l-3.37,3.79a27.88,27.88,0,0,1-3.25,3.36,31.2,31.2,0,0,1,2.85-3.71c.93-1.1,2-2.42,3.25-3.89l4.18-4.83.36-.41c1.44,1.83,2.81,3.57,4,5.16l3,4A27.55,27.55,0,0,1,115.68,41.23Z"/><path class="cls-1" d="M112.81,52.23a15.74,15.74,0,0,1-2.2-2.41l-2.25-2.77L105.94,44h0l-2.7,3.16-2.43,2.68a15.17,15.17,0,0,1-2.35,2.39,15.06,15.06,0,0,1,2-2.73l2.27-2.82,3-3.63.23-.28,2.94,3.84c.79,1.08,1.51,2,2.12,2.86A14.56,14.56,0,0,1,112.81,52.23Z"/></g></g></svg>