<?xml version="1.0" encoding="utf-8"?>
<!-- Generator: Adobe Illustrator 24.3.0, SVG Export Plug-In . SVG Version: 6.00 Build 0)  -->
<svg version="1.1" id="Layer_1" xmlns="http://www.w3.org/2000/svg" xmlns:xlink="http://www.w3.org/1999/xlink" x="0px" y="0px"
	 viewBox="0 0 303 486" style="enable-background:new 0 0 303 486;" xml:space="preserve">
<style type="text/css">
	.st0{fill:none;stroke:#C13F20;stroke-width:4;stroke-miterlimit:10;}
	.st1{fill:none;stroke:#C13F20;stroke-width:4;stroke-miterlimit:10;stroke-dasharray:11.9851,11.9851;}
	.st2{fill:none;stroke:#DDA032;stroke-width:4;stroke-miterlimit:10;stroke-dasharray:12;}
	.st3{fill:none;stroke:#FFD152;stroke-width:4;stroke-miterlimit:10;stroke-dasharray:12;}
	.st4{fill:none;stroke:#659CC8;stroke-width:4;stroke-miterlimit:10;stroke-dasharray:12;}
	.st5{fill:none;stroke:#78AF9F;stroke-width:4;stroke-miterlimit:10;stroke-dasharray:12;}
	.st6{fill:none;stroke:#61EFCE;stroke-width:4;stroke-miterlimit:10;stroke-dasharray:12;}
	.st7{fill:#EFDAB9;}
	.st8{fill:none;stroke:#EFDAB9;stroke-width:4;stroke-miterlimit:10;stroke-dasharray:12;}
</style>
<g>
	<g>
		<line class="st0" x1="18" y1="486" x2="20.6" y2="480.6"/>
		<line class="st1" x1="25.9" y1="469.8" x2="128.3" y2="259.8"/>
		<line class="st0" x1="131" y1="254.4" x2="133.6" y2="249"/>
	</g>
</g>
<line class="st2" x1="133.6" y1="249" x2="163.9" y2="298.2"/>
<line class="st3" x1="163.9" y1="298.2" x2="87.6" y2="420.2"/>
<line class="st4" x1="87.6" y1="420.2" x2="245" y2="447.1"/>
<line class="st5" x1="245" y1="447.1" x2="185" y2="201.4"/>
<line class="st6" x1="185" y1="201.4" x2="245" y2="223.6"/>
<g id="Layer_2_1_">
	<g id="Layer_1-2">
		<polygon class="st7" points="256.1,147.5 276.2,140.6 276.3,141 281.1,154.8 276.5,156.5 273.2,146.9 262.5,150.7 264.3,156.3 
			259.7,157.9 257.9,152.4 257.9,152.4 		"/>
		<polygon class="st7" points="281.1,149.5 286.4,147.7 289.5,146.6 296.4,166.6 286.3,170 284.8,165.6 290.3,163.6 286.8,152.9 
			282.8,154.3 		"/>
		<polygon class="st7" points="277.9,140 286.2,137.2 288.9,145 280.6,147.9 		"/>
	</g>
</g>
<line class="st8" x1="245" y1="223.6" x2="275.3" y2="159.8"/>
</svg>
