<svg xmlns="http://www.w3.org/2000/svg" viewBox="0 0 277.3 312"><defs><style>.cls-1{fill:#f4e4c3;}.cls-1,.cls-2{stroke:#c13f21;}.cls-2{fill:#c13f21;}</style></defs><g id="Layer_2" data-name="Layer 2"><g id="Layer_1-2" data-name="Layer 1"><path class="cls-1" d="M138.35,28.5c-16-.09-16-24.4,0-24.48C154.35,4.11,154.35,28.42,138.35,28.5Zm0-23.38c-14.44-.2-14.44,22.47,0,22.27,14.44.21,14.44-22.46,0-22.26Z"/><path class="cls-2" d="M138.89,311.5a4.57,4.57,0,1,1,.09,0Zm0-7.64a3.08,3.08,0,1,0,3.08,3.08h0a3.08,3.08,0,0,0-3-3.12h0Z"/><g id="outerPlanets"><path class="cls-2" d="M236.32,41A138.14,138.14,0,1,0,111.05,274v-.4h0C48.27,260.84.87,205.17.87,138.64.87,62.67,62.67.87,138.64.87s137.77,61.8,137.77,137.77c0,67.11-48.22,123.15-111.84,135.31l.34.34A138.17,138.17,0,0,0,236.32,41Z"/><path class="cls-2" d="M138.89,288.18a14.91,14.91,0,1,1,14.9-14.92h0A14.93,14.93,0,0,1,138.89,288.18Zm0-28.33a13.43,13.43,0,1,0,13.42,13.44v0A13.43,13.43,0,0,0,138.89,259.85Z"/><path class="cls-2" d="M150.34,282.86c-13,0-32.57-1.25-38-6.31a4.51,4.51,0,0,1-1.58-3.28,4.44,4.44,0,0,1,1.49-3.36c3.67-3.46,13.19-2.91,13.59-2.88l-.09,1.47c-.09,0-9.28-.54-12.49,2.48a2.9,2.9,0,0,0-.33,4.09,3.16,3.16,0,0,0,.42.4c6,5.59,33.11,6.47,45.65,5.69,5.11-.32,7-1.93,7.05-3.21.09-1.83-3.34-5.11-13.15-6.66l.23-1.46c8.92,1.41,14.57,4.62,14.4,8.19-.12,2.56-3.27,4.29-8.44,4.61C157,282.77,153.9,282.86,150.34,282.86Z"/></g></g></g></svg>