<?xml version="1.0" encoding="utf-8"?>
<!-- Generator: Adobe Illustrator 24.3.0, SVG Export Plug-In . SVG Version: 6.00 Build 0)  -->
<svg version="1.1" id="Layer_1" xmlns="http://www.w3.org/2000/svg" xmlns:xlink="http://www.w3.org/1999/xlink" x="0px" y="0px"
	 viewBox="0 0 297.4 297.4" style="enable-background:new 0 0 297.4 297.4;" xml:space="preserve">
<style type="text/css">
	.st0{fill:#F4E4C3;}
	.st1{fill:#C13F21;}
	.st2{fill:#F4E4C3;stroke:#C13F21;}
	.st3{fill:none;stroke:#C13F21;}
</style>
<path class="st0" d="M174.7,284.1v0.4c0.2,0,0.4-0.1,0.6-0.1l-0.3-0.3H174.7z"/>
<path class="st1" d="M25.8,211c0,1.3-1,2.3-2.3,2.3s-2.3-1-2.3-2.3s1-2.3,2.3-2.3l0,0C24.8,208.7,25.8,209.8,25.8,211z"/>
<path class="st2" d="M148.7,16.4c-9.9-0.1-9.9-15,0-15.1C158.6,1.4,158.6,16.3,148.7,16.4z M148.7,2c-8.9-0.1-8.9,13.9,0,13.7
	C157.6,15.8,157.6,1.9,148.7,2L148.7,2z"/>
<circle class="st3" cx="148.7" cy="148.7" r="139.9"/>
</svg>
