<svg xmlns="http://www.w3.org/2000/svg" viewBox="0 0 308.54 365.98"><defs><style>.cls-1{fill:#61efce;}</style></defs><g id="Layer_2" data-name="Layer 2"><g id="_ÎÓÈ_2" data-name="—ÎÓÈ_2"><circle class="cls-1" cx="62.53" cy="182.81" r="9.98" transform="translate(-129.76 201.67) rotate(-76.72)"/><path class="cls-1" d="M26.43,184.22s.1.2.17.58c0,.19.07.43.11.71s.07.62.14,1,.13.78.21,1.24.2.95.3,1.48c.24,1.07.56,2.29,1,3.64.1.34.24.68.36,1,.06.17.12.35.19.53s.13.36.2.54l.46,1.12c.15.38.35.76.52,1.15a35.74,35.74,0,0,0,2.75,4.85,36.36,36.36,0,0,0,9.49,9.56,35.59,35.59,0,0,0,28.8,5.07c.77-.22,1.55-.42,2.31-.69s1.53-.55,2.3-.85A36.18,36.18,0,0,0,80.17,213a37.84,37.84,0,0,0,4.19-2.91,39.58,39.58,0,0,0,3.79-3.56,37.22,37.22,0,0,0,3.27-4.16l.74-1.12.68-1.16c.23-.39.42-.8.64-1.19l.31-.6.29-.62.28-.62c.1-.2.19-.41.27-.62l.52-1.27.45-1.3.11-.32.1-.33.19-.66.2-.67.16-.67.16-.67.08-.34.07-.34c.08-.46.17-.91.25-1.37s.13-.92.19-1.38a37.72,37.72,0,0,0,.24-5.63,38.44,38.44,0,0,0-.67-5.59l-.3-1.36c-.12-.45-.24-.9-.37-1.35l-.09-.33-.1-.33-.22-.66-.21-.66-.25-.64-.24-.65-.12-.32-.14-.32c-.19-.42-.37-.83-.55-1.25s-.41-.82-.61-1.23c-.1-.2-.21-.4-.32-.6l-.34-.59-.33-.59-.36-.58c-.24-.38-.47-.77-.73-1.13l-.77-1.11-.82-1.06a38,38,0,0,0-3.59-3.9A39,39,0,0,0,82.16,154a36.78,36.78,0,0,0-4.39-2.58,38.84,38.84,0,0,0-4.62-1.87c-.78-.23-1.56-.49-2.35-.66s-1.58-.36-2.36-.51a34.55,34.55,0,0,0-4.71-.5,35.18,35.18,0,0,0-9,.79,35.39,35.39,0,0,0-14.59,7,36.24,36.24,0,0,0-8.71,10.28A35.41,35.41,0,0,0,29,171c-.14.4-.31.79-.43,1.18s-.24.78-.36,1.15a5.18,5.18,0,0,0-.17.56c0,.18-.1.36-.14.54-.1.37-.21.71-.28,1.06-.32,1.38-.54,2.62-.69,3.71-.06.54-.14,1-.19,1.5s-.07.88-.1,1.25-.06.71-.08,1,0,.52-.05.72c0,.38-.08.58-.12.58s-.09-.19-.14-.58c0-.19-.05-.43-.08-.72s-.05-.63-.05-1,0-.81,0-1.28,0-1,.06-1.54a33,33,0,0,1,.48-3.83c0-.36.15-.73.22-1.1l.13-.58c0-.19.08-.38.14-.58.1-.39.21-.79.32-1.2s.26-.82.4-1.24a34,34,0,0,1,2.25-5.33,36.82,36.82,0,0,1,8.82-11,36.79,36.79,0,0,1,15.27-7.69,37.37,37.37,0,0,1,14.58-.49c.84.15,1.69.29,2.53.51s1.68.44,2.52.69a36.53,36.53,0,0,1,9.67,4.67,37.26,37.26,0,0,1,8.23,7.6l.88,1.13.83,1.18c.29.39.53.81.79,1.22l.39.61.36.64.36.63c.12.21.24.43.34.65l.66,1.31.6,1.35.15.33.13.35.26.69.27.69L98,171l.23.7.12.36.1.36.39,1.44c.1.49.21,1,.32,1.47a39.83,39.83,0,0,1,.72,6,39.18,39.18,0,0,1-.25,6l-.21,1.48c-.09.49-.18,1-.28,1.47l-.07.37-.08.36-.18.72-.17.72-.21.71-.21.71-.11.36-.12.35c-.16.46-.33.92-.49,1.39s-.37.9-.55,1.36c-.09.22-.19.45-.3.67l-.31.66-.31.66-.33.64c-.23.43-.44.86-.7,1.27s-.49.83-.73,1.24-.53.8-.79,1.2A39.31,39.31,0,0,1,90,208.17,40.34,40.34,0,0,1,85.88,212,39.28,39.28,0,0,1,81.39,215a41.38,41.38,0,0,1-4.78,2.34c-.82.3-1.63.63-2.46.88s-1.65.49-2.48.71a37.46,37.46,0,0,1-5,.86,36.81,36.81,0,0,1-18.23-2.66,35.89,35.89,0,0,1-7.2-4,36.9,36.9,0,0,1-9.65-10.26A34.18,34.18,0,0,1,29,197.73c-.17-.41-.35-.8-.49-1.21s-.28-.79-.42-1.17c-.07-.19-.13-.38-.19-.57s-.11-.37-.16-.56c-.11-.37-.23-.72-.31-1.07a34.72,34.72,0,0,1-.78-3.79c-.06-.56-.14-1.07-.18-1.53s-.06-.9-.09-1.28a8.87,8.87,0,0,1,0-1c0-.29,0-.53,0-.72C26.35,184.43,26.38,184.23,26.43,184.22Z"/><path class="cls-1" d="M62.29,62.28a120.16,120.16,0,0,1,78.42,29c2.25,1.93,4.45,3.94,6.57,6.05s4.17,4.32,6.15,6.59,3.88,4.66,5.7,7.11,3.55,5,5.2,7.58a120.32,120.32,0,0,1-10,142.09c-2,2.34-4.05,4.62-6.2,6.78s-4.36,4.25-6.63,6.24-4.63,3.86-7,5.66-4.86,3.48-7.35,5.08a119.83,119.83,0,0,1-64.23,18.9h-.8c0,.93,0,1.46,0,2.25h.79a122,122,0,0,0,65.53-19.09c2.55-1.63,5.06-3.34,7.51-5.17s4.83-3.75,7.17-5.76,4.59-4.15,6.78-6.36,4.3-4.52,6.34-6.91a122.15,122.15,0,0,0,19.91-32.58,122.65,122.65,0,0,0-9.71-112.47c-1.69-2.65-3.45-5.24-5.32-7.73s-3.81-4.91-5.82-7.24-4.14-4.56-6.3-6.71-4.42-4.2-6.71-6.17A122.08,122.08,0,0,0,80.08,61.32,124.8,124.8,0,0,0,62.31,60.1,11.19,11.19,0,0,0,62.29,62.28Z"/><path class="cls-1" d="M62.36,31.64a156.79,156.79,0,0,1,21.78,1.58,150.64,150.64,0,0,1,76.47,34.72c2.81,2.43,5.57,5,8.23,7.59s5.23,5.41,7.73,8.27,4.86,5.84,7.15,8.91c.56.77,1.13,1.54,1.69,2.32l1.65,2.36c.56.78,1.07,1.59,1.61,2.4l.79,1.2c.27.41.52.82.77,1.23.51.82,1,1.63,1.53,2.46l1.49,2.5c.95,1.69,1.92,3.37,2.81,5.1,1.82,3.45,3.53,7,5.08,10.57s3,7.28,4.27,11,2.41,7.55,3.41,11.41a151.89,151.89,0,0,1-6.68,95.13c-1.53,3.68-3.19,7.3-5,10.83s-3.73,7-5.78,10.31-4.22,6.61-6.5,9.76c-1.13,1.59-2.32,3.12-3.5,4.66-.61.76-1.22,1.51-1.82,2.27s-1.24,1.48-1.86,2.22c-.31.37-.62.75-.94,1.11l-1,1.08c-.64.72-1.27,1.45-1.93,2.15l-2,2.11c-.67.69-1.34,1.37-2,2.06q-4.05,4.06-8.33,7.82t-8.8,7.1c-3,2.25-6.09,4.36-9.22,6.37A150.42,150.42,0,0,1,63,334h-.87v2.25H63a152.33,152.33,0,0,0,81.87-23.87c3.18-2,6.32-4.17,9.38-6.45s6-4.69,9-7.21,5.73-5.18,8.47-7.94l2-2.09,2-2.14c.68-.71,1.31-1.45,2-2.18l1-1.1,1-1.12c.63-.76,1.28-1.5,1.89-2.26l1.85-2.31c1.2-1.56,2.42-3.12,3.57-4.73,2.32-3.21,4.55-6.5,6.62-9.91s4-6.91,5.88-10.49,3.5-7.26,5.06-11a154.14,154.14,0,0,0,6.79-96.73q-1.51-5.9-3.47-11.61c-1.31-3.8-2.77-7.54-4.35-11.2s-3.32-7.25-5.17-10.75c-.92-1.75-1.9-3.47-2.87-5.18l-1.51-2.54c-.5-.85-1-1.67-1.56-2.5l-.78-1.25-.81-1.22c-.55-.82-1.07-1.64-1.64-2.44l-1.68-2.39-1.72-2.36q-3.5-4.66-7.28-9t-7.87-8.38c-2.71-2.69-5.51-5.25-8.38-7.71A152.39,152.39,0,0,0,84.46,31,157.48,157.48,0,0,0,62.3,29.46,12.61,12.61,0,0,1,62.36,31.64Z"/><path class="cls-1" d="M171.58,322.94c.19.23-3.57,3.86-10.47,8.72a144.82,144.82,0,0,1-12.58,7.81,164.28,164.28,0,0,1-16.34,7.86,180.59,180.59,0,0,1-17.08,6.07c-5.34,1.6-10.21,2.79-14.34,3.62-8.25,1.69-13.49,2-13.52,1.64s5-1.28,13.11-3.4c4-1.05,8.81-2.41,14-4.11s10.93-3.76,16.8-6.18,11.33-5,16.2-7.58,9.16-5.05,12.71-7.24C167.18,325.74,171.33,322.63,171.58,322.94Z"/><path class="cls-1" d="M184.16,312.16c-.12-.13.33-.8,1.25-1.89.46-.55,1-1.21,1.72-2,.34-.37.72-.76,1.1-1.19l1.2-1.37,2.78-3.08c1-1.14,2-2.34,3.13-3.6.28-.31.55-.63.83-1l.83-1,1.73-2.05c.3-.35.58-.71.87-1.07s.58-.73.88-1.09l1.79-2.23c4.77-6.1,8.78-11.84,11.54-16.1.34-.53.68-1,1-1.51l.87-1.37c.27-.42.53-.81.76-1.18l.64-1c.78-1.2,1.26-1.84,1.42-1.77s0,.87-.53,2.22c-.13.34-.28.71-.46,1.11s-.36.84-.58,1.3-.45,1-.71,1.48l-.84,1.63a118.27,118.27,0,0,1-11.08,16.76c-.61.77-1.23,1.51-1.84,2.25l-.9,1.1c-.3.36-.59.73-.9,1.07l-1.8,2-.88,1c-.29.33-.57.65-.87.95-1.17,1.23-2.29,2.4-3.35,3.48s-2.1,2-3,2.9l-1.35,1.25c-.42.39-.85.73-1.24,1.06-.78.66-1.46,1.22-2,1.66C185,311.87,184.28,312.29,184.16,312.16Z"/><path class="cls-1" d="M186.61,55.81c-.12.13-1.32-.72-3.37-2.36-.52-.41-1.08-.88-1.71-1.37l-2-1.6-2.34-1.86-2.66-2a231.24,231.24,0,0,0-30.62-19.94A197.88,197.88,0,0,0,125.72,18l-2.12-.87c-.69-.28-1.39-.54-2.07-.81-1.36-.54-2.7-1-4-1.49-2.59-.92-5-1.75-7.25-2.43-1.12-.36-2.19-.66-3.2-1s-2-.56-2.87-.8c-1.79-.49-3.35-.87-4.62-1.19-2.55-.62-4-.93-3.95-1.11s1.5-.19,4.13.14c1.31.16,2.92.41,4.77.77.92.17,1.9.39,3,.62s2.14.49,3.28.8c2.3.58,4.79,1.32,7.44,2.16,1.32.44,2.7.88,4.09,1.39.7.26,1.41.5,2.12.77l2.17.83a169.69,169.69,0,0,1,18.49,8.58,182.06,182.06,0,0,1,17.34,10.67l1.9,1.34c.61.44,1.24.86,1.83,1.31,1.18.89,2.33,1.76,3.45,2.59s2.14,1.7,3.15,2.51c.5.4,1,.8,1.48,1.18l1.38,1.18,2.56,2.19c.8.7,1.54,1.39,2.23,2l1.92,1.77c.59.55,1.1,1.08,1.57,1.55C185.76,54.59,186.73,55.68,186.61,55.81Z"/><path class="cls-1" d="M214.79,91.44c-.31.17-1.33-1-2.89-2.92s-3.62-4.66-5.85-7.72c-4.45-6.13-7.77-11.33-7.21-11.76s4.8,4.09,9.28,10.25a75.06,75.06,0,0,1,5.29,8.23C214.61,89.75,215.1,91.27,214.79,91.44Z"/><circle class="cls-1" cx="240.08" cy="183.8" r="10.96" transform="translate(-59.64 223.6) rotate(-45)"/><path class="cls-1" d="M236,137.54a7.14,7.14,0,1,1-7.15,7.14A7.14,7.14,0,0,1,236,137.54Z"/><circle class="cls-1" cx="224.85" cy="110.77" r="5.02"/><path class="cls-1" d="M236,214a7.14,7.14,0,1,1-7.15,7.14A7.14,7.14,0,0,1,236,214Z"/><path class="cls-1" d="M224.85,249.37a5,5,0,1,1-5,5A5,5,0,0,1,224.85,249.37Z"/><path class="cls-1" d="M308.5,182.92c-.44,0-5.06-2.41-12.44-6.19-3.68-1.9-8-4.14-12.86-6.68s-10.11-5.42-15.77-8.61l2.9-1.68c.07,7.24.12,15,.12,23.16s-.05,15.91-.12,23.16l-2.9-1.68c5.66-3.19,10.95-6.06,15.77-8.61s9.18-4.78,12.86-6.68c7.38-3.78,12-6.19,12.44-6.19s-3.3,2.42-10.14,6.84c-3.42,2.21-7.63,4.92-12.52,8s-10.46,6.46-16.48,10l-2.86,1.69,0-3.36c-.08-7.25-.12-15-.12-23.16s0-15.92.12-23.16l0-3.37,2.86,1.7c6,3.55,11.59,6.95,16.48,10s9.1,5.77,12.52,8C305.2,180.49,308.94,182.92,308.5,182.92Z"/><path class="cls-1" d="M184.16,182.81c0,.71-27.23,1.28-60.82,1.28s-60.81-.57-60.81-1.28,27.22-1.28,60.81-1.28S184.16,182.11,184.16,182.81Z"/><ellipse class="cls-1" cx="148.43" cy="182.93" rx="1.28" ry="12.7"/><path class="cls-1" d="M163.86,156.61c.71,0,1.28,11.7,1.28,26.14s-.57,26.15-1.28,26.15-1.28-11.71-1.28-26.15S163.16,156.61,163.86,156.61Z"/><path class="cls-1" d="M62.53,366c-.71,0-1.28-6.93-1.28-15.49S61.82,335,62.53,335s1.28,6.93,1.28,15.49S63.23,366,62.53,366Z"/><ellipse class="cls-1" cx="62.75" cy="15.49" rx="1.28" ry="15.49"/><path class="cls-1" d="M80.1,125.84a3.15,3.15,0,0,1-1.42,1.78,2.88,2.88,0,0,1-2.17.29,2.75,2.75,0,0,1-1.76-1.3,3,3,0,0,1-.41-1.06,2.88,2.88,0,0,1,0-1.17,2.81,2.81,0,0,1,1.29-1.86,3.17,3.17,0,0,1,2.34-.35,3.13,3.13,0,0,1,1.88,1.43A2.77,2.77,0,0,1,80.1,125.84Z"/><path class="cls-1" d="M96.1,133.57a3.1,3.1,0,0,1-1.88,1.26,2.85,2.85,0,0,1-2.16-.36,2.89,2.89,0,0,1-1.3-1.76,3.13,3.13,0,0,1,.28-2.25,2.78,2.78,0,0,1,1.78-1.39,3.08,3.08,0,0,1,2.33.35,3.13,3.13,0,0,1,1.38,1.92A2.81,2.81,0,0,1,96.1,133.57Z"/><path class="cls-1" d="M109.12,145.66a3,3,0,0,1-2.16.64,2.84,2.84,0,0,1-2-1,3,3,0,0,1-.72-2.07,3.07,3.07,0,0,1,.92-2.07,2.84,2.84,0,0,1,2.12-.81,3,3,0,0,1,2.12,1,3.13,3.13,0,0,1,.77,2.22A2.89,2.89,0,0,1,109.12,145.66Z"/><path class="cls-1" d="M118,161a3,3,0,0,1-2.26,0,3,3,0,0,1-1.59-1.5,3,3,0,0,1-.07-2.19,3.07,3.07,0,0,1,1.47-1.71,2.88,2.88,0,0,1,2.28-.15,3.09,3.09,0,0,1,1.79,4A2.85,2.85,0,0,1,118,161Z"/><path class="cls-1" d="M122,178.36a3,3,0,0,1-2.15-.68,3.22,3.22,0,0,1-.71-.85,2.79,2.79,0,0,1-.37-1.06,2.85,2.85,0,0,1,.09-1.13,2.57,2.57,0,0,1,.21-.52,3.24,3.24,0,0,1,.28-.47,3.09,3.09,0,0,1,1.92-1.19,2.9,2.9,0,0,1,2.22.53,4,4,0,0,1,.43.39,2.85,2.85,0,0,1,.34.49,3.27,3.27,0,0,1,.3,2.4,2.87,2.87,0,0,1-2.56,2.09Z"/><path class="cls-1" d="M120.63,196.08a3.08,3.08,0,0,1-1.85-1.29,2.77,2.77,0,0,1-.26-.48,2.55,2.55,0,0,1-.18-.53,2.68,2.68,0,0,1,0-1.13,2.73,2.73,0,0,1,.43-1,2.87,2.87,0,0,1,.74-.81,3.08,3.08,0,0,1,2.19-.58,2.84,2.84,0,0,1,2,1.16,2.88,2.88,0,0,1,.5,1.06,3.18,3.18,0,0,1,0,1.23,3.06,3.06,0,0,1-.44,1.15,3.43,3.43,0,0,1-.36.47,3.16,3.16,0,0,1-.45.37A2.9,2.9,0,0,1,120.63,196.08Z"/><path class="cls-1" d="M114.14,212.61a3,3,0,0,1-1.5-2.87,2.68,2.68,0,0,1,.29-1.09,3,3,0,0,1,3.92-1.32,2.8,2.8,0,0,1,1.54,1.68,2.92,2.92,0,0,1-.19,2.34,3.26,3.26,0,0,1-.76,1,3,3,0,0,1-1,.55A2.86,2.86,0,0,1,114.14,212.61Z"/><path class="cls-1" d="M103.06,226.5a3.14,3.14,0,0,1-.82-2.12,3,3,0,0,1,.83-2,2.83,2.83,0,0,1,2-.87,3,3,0,0,1,2.12.75,2.91,2.91,0,0,1,1,2.07,3.14,3.14,0,0,1-.88,2.18,3,3,0,0,1-2.17.92A2.81,2.81,0,0,1,103.06,226.5Z"/><path class="cls-1" d="M88.39,236.53a3.15,3.15,0,0,1-.16-2.27,2.92,2.92,0,0,1,3.56-1.94,3.13,3.13,0,0,1,1,.5,3,3,0,0,1,.8.86,2.8,2.8,0,0,1,.32,2.24,3.15,3.15,0,0,1-1.48,1.85,3.07,3.07,0,0,1-2.34.23A2.81,2.81,0,0,1,88.39,236.53Z"/><path class="cls-1" d="M71.41,241.76a3,3,0,0,1,.06-1.17,3.15,3.15,0,0,1,.46-1,2.91,2.91,0,0,1,4-.81,3.13,3.13,0,0,1,1.34,1.84,2.82,2.82,0,0,1-.37,2.24,3,3,0,0,1-2,1.32,3.09,3.09,0,0,1-2.31-.46,2.69,2.69,0,0,1-.79-.82A2.76,2.76,0,0,1,71.41,241.76Z"/><path class="cls-1" d="M53.64,241.76a3.14,3.14,0,0,1,1.14-2,2.82,2.82,0,0,1,2.1-.61,2.77,2.77,0,0,1,1.94,1,3.2,3.2,0,0,1,.74,2.15,2.8,2.8,0,0,1-1,2,3.15,3.15,0,0,1-2.25.7,3.06,3.06,0,0,1-2.07-1.13A2.77,2.77,0,0,1,53.64,241.76Z"/><path class="cls-1" d="M36.66,236.53A3.13,3.13,0,0,1,38.33,235a2.87,2.87,0,0,1,2.19,0,2.78,2.78,0,0,1,1.55,1.55,3.16,3.16,0,0,1,.07,2.27,2.81,2.81,0,0,1-1.56,1.64,3.2,3.2,0,0,1-2.36,0,3.13,3.13,0,0,1-1.65-1.69A2.79,2.79,0,0,1,36.66,236.53Z"/><path class="cls-1" d="M22,226.5a3,3,0,0,1,2-1,2.82,2.82,0,0,1,2.09.66,3.16,3.16,0,0,1,.4.42,2.85,2.85,0,0,1,.31.46,2.91,2.91,0,0,1,.32,1.06,3.14,3.14,0,0,1-.61,2.18,2.77,2.77,0,0,1-2,1.11,2.92,2.92,0,0,1-1.17-.11,2.72,2.72,0,0,1-.57-.23,2.49,2.49,0,0,1-.51-.36,3.06,3.06,0,0,1-1.09-2.09A2.84,2.84,0,0,1,22,226.5Z"/><path class="cls-1" d="M10.91,212.61a3.05,3.05,0,0,1,2.23-.32,2.9,2.9,0,0,1,.52.18,3,3,0,0,1,.5.26,2.78,2.78,0,0,1,1.19,1.86,2.91,2.91,0,0,1,0,1.1,3.08,3.08,0,0,1-1.21,1.91,2.82,2.82,0,0,1-2.22.49,3,3,0,0,1-1.09-.45,2.9,2.9,0,0,1-.85-.89,3.38,3.38,0,0,1-.46-1.14,3.92,3.92,0,0,1,0-.59,3.85,3.85,0,0,1,.08-.58A2.88,2.88,0,0,1,10.91,212.61Z"/><path class="cls-1" d="M4.42,196.08a3,3,0,0,1,2.23.35,3.21,3.21,0,0,1,.83.73,2.73,2.73,0,0,1,.52,1,2.66,2.66,0,0,1,.08,1.12,3,3,0,0,1-.13.54,2.28,2.28,0,0,1-.21.51A3,3,0,0,1,6,201.8a2.88,2.88,0,0,1-2.27-.19,2.7,2.7,0,0,1-.5-.33,3.19,3.19,0,0,1-.4-.42,3.19,3.19,0,0,1-.66-2.33,2.82,2.82,0,0,1,.38-1.11A2.85,2.85,0,0,1,4.42,196.08Z"/><path class="cls-1" d="M3.11,178.36A3,3,0,0,1,3,184.3a2.84,2.84,0,0,1-2.11-.85,2.91,2.91,0,0,1-.85-2.2,3,3,0,0,1,1-2.15A2.89,2.89,0,0,1,3.11,178.36Z"/><path class="cls-1" d="M7,161a3,3,0,0,1,1.64,1.54,3,3,0,0,1,.15,2.19,2.62,2.62,0,0,1-.57,1,3,3,0,0,1-.86.69,3.1,3.1,0,0,1-2.25.24,2.89,2.89,0,0,1-1.77-1.43,2.94,2.94,0,0,1-.32-1.13,3,3,0,0,1,.16-1.22,2.93,2.93,0,0,1,1.55-1.78A2.84,2.84,0,0,1,7,161Z"/><path class="cls-1" d="M15.94,145.66a3.07,3.07,0,0,1,1.11,2,2.85,2.85,0,0,1-.05,1.09,3,3,0,0,1-.46,1,2.73,2.73,0,0,1-.83.76,3.28,3.28,0,0,1-1,.39,3,3,0,0,1-2.21-.43,2.91,2.91,0,0,1-1.27-1.89,2.72,2.72,0,0,1,0-1.17,3.25,3.25,0,0,1,1.4-2,3.27,3.27,0,0,1,1.11-.39A2.86,2.86,0,0,1,15.94,145.66Z"/><path class="cls-1" d="M29,133.57a3.1,3.1,0,0,1,.5,2.21,2.94,2.94,0,0,1-.37,1,3.31,3.31,0,0,1-.75.84,2.8,2.8,0,0,1-2.12.56,2.57,2.57,0,0,1-.55-.12,2.66,2.66,0,0,1-.53-.21,3,3,0,0,1-.91-.73,2.93,2.93,0,0,1-.56-1,2.55,2.55,0,0,1-.09-1.14,3.05,3.05,0,0,1,1.18-2,2.84,2.84,0,0,1,1.12-.54,3.09,3.09,0,0,1,1.17,0A2.77,2.77,0,0,1,29,133.57Z"/><path class="cls-1" d="M45,125.84a3.11,3.11,0,0,1-.18,2.27,2.78,2.78,0,0,1-1.62,1.46A2.86,2.86,0,0,1,41,129.5a3.14,3.14,0,0,1-1.59-1.62,2.82,2.82,0,0,1,0-2.26,3,3,0,0,1,4.09-1.49A2.76,2.76,0,0,1,45,125.84Z"/><path class="cls-1" d="M62.53,123.21a3.1,3.1,0,0,1-.84,2.11,2.83,2.83,0,0,1-2,.92,2.79,2.79,0,0,1-2.06-.72,3.05,3.05,0,0,1-1-2,2.81,2.81,0,0,1,.69-2.15,3,3,0,0,1,4.35-.21A2.8,2.8,0,0,1,62.53,123.21Z"/><path class="cls-1" d="M43.69,58.61a2.8,2.8,0,1,1-2.8,2.8A2.8,2.8,0,0,1,43.69,58.61Z"/><path class="cls-1" d="M43.69,301.69a2.8,2.8,0,1,1-2.8,2.8A2.8,2.8,0,0,1,43.69,301.69Z"/><path class="cls-1" d="M204.2,184.22c0,.42-4.47.39-9.93-.06s-9.85-1.17-9.81-1.59,4.49-.39,9.94.06S204.23,183.79,204.2,184.22Z"/><path class="cls-1" d="M166.49,89.3c.16.14-.37,1.08-1.45,2.42A30,30,0,0,1,163,94c-.81.81-1.73,1.66-2.74,2.51s-2,1.58-3,2.23-1.83,1.16-2.59,1.57c-1.52.81-2.54,1.16-2.64,1-.22-.38,3.28-2.68,7.21-6S166.15,89,166.49,89.3Z"/><path class="cls-1" d="M61.91,49.4c.22,0,.39.65.65,1.66.12.5.28,1.11.44,1.79s.33,1.43.47,2.25a15.29,15.29,0,0,1,.25,2.35,8.87,8.87,0,0,1,0,1.06c0,.17,0,.33-.05.48l-.09.44a4,4,0,0,1-.22.73q-.06.17-.12.3l-.13.23c-.17.28-.31.4-.41.37s-.17-.73-.2-1.74c0-.13,0-.26,0-.4s0-.28,0-.43-.06-.61-.09-.94c-.09-.67-.21-1.4-.35-2.19s-.27-1.55-.35-2.26a13.74,13.74,0,0,1-.13-1.92C61.49,50.07,61.71,49.39,61.91,49.4Z"/><path class="cls-1" d="M123,50c.19,0,.1,1.48-.55,3.69A31.81,31.81,0,0,1,121,57.5a45.79,45.79,0,0,1-2.25,4.38,85.31,85.31,0,0,1-4.89,7.41c-1.34,1.83-2.26,2.91-2.44,2.79s.42-1.39,1.53-3.37,2.75-4.64,4.47-7.6c.86-1.48,1.64-2.9,2.3-4.22s1.22-2.52,1.67-3.55C122.3,51.29,122.77,50,123,50Z"/><path class="cls-1" d="M92.75,42.14c.4.16-1.1,4.75-3.14,10.33s-3.88,10.06-4.29,9.92.79-4.84,2.85-10.45S92.36,42,92.75,42.14Z"/><path class="cls-1" d="M146.14,69.6c.16.13-.33,1.09-1.31,2.51a47.74,47.74,0,0,1-4.29,5.21,46.11,46.11,0,0,1-5,4.58c-1.36,1.07-2.3,1.62-2.43,1.46-.29-.33,2.72-3.31,6.27-7.09S145.79,69.34,146.14,69.6Z"/><path class="cls-1" d="M188.22,120.48c.11.17-.67.9-2.09,1.85-.71.47-1.58,1-2.58,1.54s-2.1,1.08-3.3,1.6-2.36,1-3.44,1.3-2.05.62-2.89.81c-1.66.37-2.73.44-2.78.25-.11-.43,3.83-1.75,8.5-3.77S188,120.1,188.22,120.48Z"/><path class="cls-1" d="M197,151.79c.07.42-3.3,1.33-7.55,2s-7.73.75-7.78.33,3.33-1.22,7.56-1.85S196.9,151.37,197,151.79Z"/><path class="cls-1" d="M199.6,213.17c-.1.41-4.43-.29-9.68-1.57-1.31-.31-2.56-.64-3.69-.95s-2.13-.61-3-.91a7.39,7.39,0,0,1-2-1c-.42-.31-.59-.57-.53-.65s.34,0,.8.12a19.47,19.47,0,0,0,2,.45c.84.15,1.9.34,3,.58s2.4.52,3.71.84C195.53,211.39,199.7,212.76,199.6,213.17Z"/><path class="cls-1" d="M162.43,288.51c-.13.16-1.24-.49-2.88-1.74a59.26,59.26,0,0,1-6-5.35,61.53,61.53,0,0,1-5.31-6.07c-1.23-1.66-1.88-2.77-1.71-2.9.34-.27,3.72,3.49,8.11,7.89S162.71,288.17,162.43,288.51Z"/><path class="cls-1" d="M176.61,266.63c-.31.3-3.39-2.48-7.37-5.64s-7.36-5.56-7.14-5.93c.11-.18,1.11.19,2.6,1a40.46,40.46,0,0,1,5.5,3.72,39.77,39.77,0,0,1,4.85,4.54C176.18,265.6,176.76,266.49,176.61,266.63Z"/><path class="cls-1" d="M193.26,243.83c-.17.38-5-1.39-10.57-4.34s-9.77-5.9-9.55-6.26,4.73,2,10.27,4.9S193.43,243.43,193.26,243.83Z"/><path class="cls-1" d="M61.82,321.08c-.21-.06-.12-1,0-2.51,0-.75.06-1.65.07-2.65s0-2.1,0-3.27c0-4.69.32-8.49.75-8.49s.78,3.8.79,8.49c0,1.18,0,2.31-.12,3.34a20,20,0,0,1-.4,2.73C62.49,320.26,62,321.14,61.82,321.08Z"/><path class="cls-1" d="M90.53,321.48c-.21,0-.53-1.08-.92-2.87s-.88-4.25-1.6-6.9c-.37-1.33-.77-2.56-1.17-3.68-.22-.55-.41-1.08-.62-1.56-.11-.24-.2-.48-.3-.7l-.3-.64c-.17-.41-.37-.77-.52-1.1l-.22-.45-.18-.38c-.22-.47-.31-.76-.22-.82s.33.1.7.47l.31.32c.11.12.21.26.33.4a12.64,12.64,0,0,1,.75,1l.4.62c.13.22.26.45.39.7.28.48.52,1,.79,1.58a28.54,28.54,0,0,1,1.34,3.8,37.66,37.66,0,0,1,1.19,7.16C90.8,320.3,90.74,321.45,90.53,321.48Z"/><path class="cls-1" d="M112.55,311c-.22.06-.6-.78-1.25-2.08l-.26-.51-.28-.55c-.19-.38-.42-.78-.64-1.21-.47-.85-1-1.79-1.51-2.78s-1-2-1.45-2.87c-.2-.46-.39-.89-.54-1.31s-.29-.81-.4-1.17c-.44-1.46-.48-2.42-.28-2.47s.61.77,1.28,2.06c.17.33.35.68.56,1.06s.42.78.65,1.2c.47.85,1,1.78,1.53,2.78s1,2,1.43,2.88c.2.46.38.89.53,1.32.08.21.15.41.22.61s.12.39.17.57C112.73,310,112.74,311,112.55,311Z"/><path class="cls-1" d="M134,305.62c-.37.21-3-3.65-5.8-8.62s-4.83-9.17-4.46-9.38,3,3.65,5.8,8.62S134.33,305.41,134,305.62Z"/><path class="cls-1" d="M198.93,172.51c0,.41-3.51,1.11-8,1.31s-8-.17-8-.59,3.57-.74,8-.95S198.89,172.08,198.93,172.51Z"/><path class="cls-1" d="M202.89,163c.06.42-4.16,1.31-9.45,1.8s-9.6.38-9.62,0,4.23-1,9.48-1.49S202.84,162.6,202.89,163Z"/><path class="cls-1" d="M191.28,143.5c.15.4-2.31,1.64-5.55,2.56s-6,1.19-6.06.78,2.46-1.33,5.64-2.25S191.14,143.1,191.28,143.5Z"/><path class="cls-1" d="M194.46,131.17c.16.39-3.79,2.39-8.82,4.48-2.52,1-4.82,1.9-6.54,2.45s-2.86.68-2.92.48.93-.69,2.52-1.49,3.84-1.82,6.35-2.86C190.08,132.15,194.3,130.78,194.46,131.17Z"/><path class="cls-1" d="M179.67,110.39c.25.34-2.37,2.68-5.85,5.23-.87.64-1.71,1.23-2.48,1.75a15.07,15.07,0,0,1-2.21,1.29,4.73,4.73,0,0,1-1.74.45c-.43,0-.67-.09-.68-.19s.2-.22.54-.39a11.59,11.59,0,0,0,1.35-.82c.55-.38,1.17-.89,1.9-1.48s1.55-1.21,2.42-1.85C176.4,111.83,179.42,110.05,179.67,110.39Z"/><path class="cls-1" d="M176.09,98.66c.27.32-2.81,3.41-7.19,6.49s-8.32,4.94-8.52,4.58,3.33-2.79,7.64-5.84S175.8,98.33,176.09,98.66Z"/><path class="cls-1" d="M160.07,81.13c.31.29-2.37,3.61-6.15,7.25s-7.2,6.2-7.47,5.88,2.65-3.37,6.4-7S159.76,80.84,160.07,81.13Z"/><path class="cls-1" d="M149.35,78.5c.23.37-2.22,2.25-5,4.76s-5,4.74-5.29,4.47c-.16-.13.17-.87.91-1.92a23.06,23.06,0,0,1,3.36-3.69,23.49,23.49,0,0,1,4-2.93C148.47,78.57,149.24,78.32,149.35,78.5Z"/><path class="cls-1" d="M137.78,67.39c.33.25-1.61,3.31-4.56,6.64s-5.77,5.62-6.06,5.32,2-3,4.91-6.34S137.44,67.12,137.78,67.39Z"/><path class="cls-1" d="M130.5,57.71c.38.18-1.22,4.32-3.89,9.07s-5.36,8.29-5.71,8.06,1.73-4.1,4.37-8.81S130.11,57.53,130.5,57.71Z"/><path class="cls-1" d="M113.25,50.51c.38.18-1.21,4.34-3.44,9.33s-4.26,9-4.65,8.78,1-4.4,3.25-9.41S112.87,50.33,113.25,50.51Z"/><path class="cls-1" d="M103,49.21c.34.27-1.82,3.51-4.08,7.71s-3.79,7.78-4.21,7.64c-.19-.07-.06-1.07.41-2.61a27.86,27.86,0,0,1,1-2.64c.41-1,.91-2,1.49-3.12s1.2-2.07,1.79-3S100.48,51.59,101,51C102,49.74,102.78,49.08,103,49.21Z"/><path class="cls-1" d="M82.17,43.46c.41,0,.2,4.44-1,9.69s-2.89,9.31-3.28,9.18.61-4.34,1.78-9.52S81.74,43.41,82.17,43.46Z"/><path class="cls-1" d="M71.63,42.84c.43.08,0,4.14-.56,9.13S70.12,61,69.69,61s-.7-4.14-.15-9.21S71.23,42.75,71.63,42.84Z"/><path class="cls-1" d="M69.52,323c-.42,0-.76-4.12-.86-9.2s.06-9.2.49-9.22.94,4.09,1,9.19S69.94,323,69.52,323Z"/><path class="cls-1" d="M78.71,323.43c-.41.07-1.52-4.27-2.32-9.72s-1-9.92-.59-10,1.3,4.32,2.1,9.75S79.13,323.35,78.71,323.43Z"/><path class="cls-1" d="M96.62,313.33c-.4.14-1.74-2.68-3-6.31a48.35,48.35,0,0,1-1.39-4.71,5.79,5.79,0,0,1-.15-.88,2,2,0,0,1,0-.75,1,1,0,0,1,.23-.43c.09-.08.16-.1.2-.08s.09.26.17.54a6.77,6.77,0,0,0,.53,1.25,46,46,0,0,1,1.81,4.56C96.33,310.15,97,313.19,96.62,313.33Z"/><path class="cls-1" d="M106.13,318.55c-.38.17-2.66-4-5.07-9.24-.61-1.32-1.16-2.58-1.65-3.74s-.91-2.22-1.23-3.13c-.64-1.82-.81-3-.61-3.08s.73,1,1.61,2.65c.43.84,1,1.84,1.52,3s1.15,2.37,1.75,3.69C104.87,314,106.52,318.37,106.13,318.55Z"/><path class="cls-1" d="M118.31,308.16c-.41.15-1.93-3.12-4-7.06-1-2-1.94-3.74-2.58-5.05a7.7,7.7,0,0,1-.66-1.68c-.09-.43-.05-.69,0-.72s.25.16.5.47l1,1.36a36.48,36.48,0,0,1,5.24,10.27C118.38,307.17,118.51,308.09,118.31,308.16Z"/><path class="cls-1" d="M128,309.36c-.36.22-3.1-3.63-6.29-8.49s-5.64-8.9-5.29-9.15,3.37,3.42,6.57,8.31S128.36,309.15,128,309.36Z"/><path class="cls-1" d="M137.15,297.78c-.35.24-2.6-2.44-4.79-6.13s-3.46-6.95-3.09-7.14,2.24,2.72,4.41,6.36S137.5,297.54,137.15,297.78Z"/><path class="cls-1" d="M148.7,297.83c-.32.27-3.88-3.4-7.95-8.21-2-2.4-3.81-4.64-5-6.3l-.81-1.14a6.77,6.77,0,0,1-.56-.94c-.27-.55-.3-.9-.2-.94s.3.2.69.6c.2.21.44.45.73.73s.62.62,1,1c1.44,1.48,3.35,3.6,5.38,6C146,293.44,149,297.56,148.7,297.83Z"/><path class="cls-1" d="M150.35,288.73c-.29.3-3.11-1.9-6.14-5.08s-5.1-6.09-4.79-6.37,2.9,2.16,5.9,5.31S150.64,288.42,150.35,288.73Z"/><path class="cls-1" d="M160.61,278c-.28.31-3.16-1.75-6.19-4.86A39,39,0,0,1,150.8,269l-.29-.41-.13-.2-.14-.2a2.14,2.14,0,0,1-.3-.8.83.83,0,0,1,.11-.57c.08-.12.16-.14.21-.12s.06.1.09.19a1.05,1.05,0,0,0,.16.32,2.6,2.6,0,0,0,.41.45l.32.28.37.34c1,1,2.41,2.33,3.91,3.87C158.5,275.16,160.89,277.7,160.61,278Z"/><path class="cls-1" d="M168.25,271.7c-.34.28-3-2.34-6.35-5.37l-4.37-3.88-.75-.7-.29-.29-.07-.07a.43.43,0,0,1-.09-.1,1.07,1.07,0,0,1-.13-.19,1.09,1.09,0,0,1-.1-.36.46.46,0,0,1,.08-.33.21.21,0,0,1,.2-.09c.05,0,.07,0,.07.06s0,.13,0,.16.1.11.22.21l.1.06h.05l.08,0,.38.2c.27.14.57.32.89.52a34.11,34.11,0,0,1,4.74,3.61,33.65,33.65,0,0,1,4.09,4.32C168,270.72,168.41,271.56,168.25,271.7Z"/><path class="cls-1" d="M182.84,262.62c-.27.33-4.4-2.61-9.23-6.56s-8.54-7.41-8.27-7.74,4.41,2.61,9.24,6.56S183.11,262.29,182.84,262.62Z"/><path class="cls-1" d="M184,250.44c-.27.34-3.38-1.67-7.35-3.83-1-.55-1.95-1.05-2.82-1.51a18.57,18.57,0,0,1-2.34-1.35,4.65,4.65,0,0,1-1.33-1.37c-.23-.41-.25-.67-.17-.72s.29.09.62.32a9,9,0,0,0,1.44.84c.64.31,1.46.6,2.39,1s1.93.88,3,1.44a31.78,31.78,0,0,1,4.94,3.31C183.54,249.55,184.16,250.28,184,250.44Z"/><path class="cls-1" d="M196.14,235.88c-.19.38-4.79-1.57-10.27-4.35s-9.77-5.34-9.58-5.72,4.79,1.57,10.27,4.35S196.33,235.5,196.14,235.88Z"/><path class="cls-1" d="M197,224.35c-.11.4-4.26-.38-9.14-2.15s-8.58-3.81-8.41-4.19,4.11,1,8.93,2.74S197.08,223.94,197,224.35Z"/><path class="cls-1" d="M196.54,203.7c-.11.41-3.15-.08-6.83-.9s-6.63-1.68-6.56-2.1,3.18-.24,6.9.6S196.66,203.3,196.54,203.7Z"/><path class="cls-1" d="M205.32,195.33c0,.21-1.22.16-3.1,0s-4.46-.45-7.31-.78-5.45-.67-7.31-1-3-.65-3-.86,1.21-.28,3.1-.22,4.5.24,7.37.57a63,63,0,0,1,7.32,1.23C204.25,194.69,205.36,195.12,205.32,195.33Z"/></g></g></svg>