<svg xmlns="http://www.w3.org/2000/svg" viewBox="0 0 377.84 396.9"><defs><style>.cls-1{fill:#61efce;}.cls-2{fill:#c13f20;}.cls-3{fill:#dda032;}</style></defs><g id="Layer_2" data-name="Layer 2"><g id="_ÎÓÈ_2" data-name="—ÎÓÈ_2"><path class="cls-1" d="M377.84,70.53a10.83,10.83,0,0,1-2.22.16c-1.46,0-3.63.09-6.47.14L358.67,71l-13.74.13c-.22,1.39-.45,2.83-.68,4.31-.14.82-.27,1.66-.41,2.5s-.25,1.71-.43,2.57q-.51,2.59-1,5.34c-.18.91-.36,1.83-.54,2.77l-.64,2.82-1.32,5.83c-.51,2-1,4-1.57,6.06s-1.14,4.15-1.75,6.28c-.31,1.06-.63,2.13-.94,3.22-.15.54-.32,1.08-.5,1.62s-.35,1.09-.53,1.64a278.26,278.26,0,0,1-10.36,27.61,290.45,290.45,0,0,1-15,29.47c-2.95,5-6.06,10-9.45,15s-7,10-10.87,14.94c-1.93,2.48-3.95,4.92-6,7.36s-4.22,4.84-6.45,7.21c-1.12,1.19-2.25,2.37-3.43,3.52l-.88.87-.49.47-.87.81c-.15.12-.29.28-.44.38l-.5-.32-1-.64-1.06-.68-8.36-5.34L189,171.64l-70.55,44.87-8.41,5.34-1.07.68-1,.65-.5.32a5.31,5.31,0,0,1-.44-.4L104.8,221c-1.18-1.15-2.38-2.27-3.53-3.43L97.92,214c-.55-.59-1.12-1.17-1.66-1.78s-1.05-1.21-1.58-1.82c-1-1.22-2.1-2.42-3.13-3.63l-3-3.72-1.48-1.84c-.46-.64-.93-1.27-1.39-1.89L83,195.54c-.9-1.27-1.76-2.54-2.63-3.8s-1.75-2.51-2.54-3.8c-1.64-2.55-3.28-5.06-4.78-7.63-.75-1.27-1.52-2.53-2.26-3.8L68.6,172.7l-1.07-1.9c-.35-.62-.67-1.27-1-1.9l-2-3.78c-.67-1.24-1.27-2.52-1.9-3.77l-1.85-3.73L59,153.89c-.57-1.24-1.16-2.46-1.7-3.69-1.08-2.46-2.18-4.87-3.17-7.29-4.07-9.64-7.48-18.9-10.38-27.61s-5.26-16.89-7.24-24.41c-1-3.76-1.86-7.35-2.64-10.77-.39-1.7-.76-3.37-1.1-5-.16-.81-.33-1.61-.49-2.39l-.23-1.18-.12-.7L18.6,70.73,8.43,70.59c-2.75,0-4.86-.1-6.28-.14A11.89,11.89,0,0,1,0,70.3a11.89,11.89,0,0,1,2.15-.15c1.42-.05,3.53-.1,6.28-.14l10.17-.14,14.27-.13c.11.53.21,1.06.32,1.6l.24,1.16c.18.78.35,1.57.53,2.38q.54,2.41,1.16,5,1.23,5.1,2.77,10.7C40,98,42.4,106.11,45.35,114.77s6.43,17.83,10.54,27.39c1,2.4,2.12,4.79,3.21,7.23.54,1.23,1.13,2.44,1.71,3.66l1.76,3.69,1.86,3.7c.64,1.24,1.24,2.5,1.91,3.74s1.33,2.48,2,3.74c.34.62.67,1.26,1,1.88l1.06,1.87c.72,1.25,1.43,2.51,2.15,3.78s1.51,2.5,2.27,3.76c1.49,2.53,3.13,5,4.76,7.53.8,1.28,1.68,2.5,2.54,3.75s1.72,2.51,2.61,3.75,1.83,2.46,2.76,3.7l1.38,1.86,1.47,1.82q1.45,1.83,2.94,3.66c1,1.2,2.07,2.38,3.1,3.58.53.6,1,1.19,1.57,1.8s1.09,1.16,1.64,1.74l3.31,3.49c1.14,1.14,2.32,2.24,3.49,3.37l1.32,1.27s0,0,0,0l1-.64,8.4-5.37L189,168.71l.69.44,71,45.59,8.35,5.37,1,.64s0,.05.05,0l0,0,.4-.38.86-.84c1.15-1.13,2.27-2.29,3.38-3.45,2.21-2.33,4.33-4.72,6.4-7.11s4.06-4.82,6-7.27c3.85-4.88,7.45-9.82,10.84-14.77s6.49-9.93,9.43-14.85a289,289,0,0,0,15-29.18A279.65,279.65,0,0,0,333,115.54l.54-1.62c.18-.53.36-1.07.51-1.61.33-1.07.65-2.14,1-3.19.63-2.11,1.28-4.17,1.8-6.23s1.1-4,1.63-6l1.38-5.8c.22-.94.45-1.88.67-2.8s.38-1.84.56-2.75c.38-1.81.74-3.57,1.1-5.29.19-.86.32-1.72.47-2.56s.29-1.67.44-2.48c.31-1.8.62-3.55.91-5.24l14.7.13,10.48.14c2.84.05,5,.09,6.47.14A12.61,12.61,0,0,1,377.84,70.53Z"/><ellipse class="cls-1" cx="23.14" cy="87.75" rx="13.58" ry="1.24"/><path class="cls-1" d="M6.73,64.43c-.21-.16.71-1.79,2.44-4.45.87-1.33,1.94-2.91,3.18-4.7l2-2.82,1.07-1.52,2-2.8,4.07,5.34,3.33,4.43,5.7,7.72-4.47,0-2.37,0-4.09-.1c-2.59-.07-4.89-.16-6.79-.27-3.82-.21-6.1-.47-6.1-.76s2.28-.55,6.1-.76c1.9-.11,4.2-.2,6.79-.27l4.09-.1,2,0,.07,0-.05,0h0L25.61,63l-.54-.71c-.72-1-1.46-1.94-2.2-2.94l-3.3-4.45c-.95-1.31-2.49-3.41-2.12-3l-.05,0,0,0h0l0,0-.15.19L16,53.73l-2.14,2.7c-1.36,1.7-2.58,3.18-3.61,4.39C8.24,63.24,6.94,64.58,6.73,64.43Z"/><path class="cls-1" d="M349.13,64.9c-.21-.16.71-1.79,2.44-4.44.87-1.33,1.94-2.92,3.18-4.71l2-2.82,1.07-1.51,2.05-2.81L363.92,54l3.33,4.42L373,66.1l-4.48,0-2.37,0-4.09-.1c-2.58-.07-4.88-.16-6.79-.27-3.81-.21-6.09-.47-6.09-.76s2.28-.55,6.09-.76c1.91-.11,4.21-.2,6.79-.27l4.09-.1,2,0,.07,0-.05,0h0l-.1-.13-.54-.72-2.21-2.94L362,55.41c-1-1.31-2.49-3.41-2.12-3l-.05,0,0,0h0s0,0,0,0l-.15.18-1.14,1.46-2.15,2.71c-1.36,1.69-2.57,3.17-3.6,4.38C350.64,63.71,349.34,65.05,349.13,64.9Z"/><ellipse class="cls-1" cx="354.59" cy="86.57" rx="13.03" ry="1.24"/><path class="cls-1" d="M233.15,171.24c-.17.29-5.26-2.22-13.35-6.52-4.05-2.15-8.85-4.74-14.16-7.66l-8.32-4.6L189,147.81l-8.36,4.61L172.3,157c-5.33,2.88-10.15,5.45-14.21,7.58-8.13,4.25-13.23,6.74-13.4,6.44s4.64-3.32,12.55-8c4-2.32,8.69-5.05,14-8.05l8.28-4.67L189,145l0,0,9.48,5.37,8.25,4.72c5.25,3,10,5.78,13.9,8.13C228.53,167.89,233.32,170.94,233.15,171.24Z"/><ellipse class="cls-1" cx="188.83" cy="179.86" rx="1.24" ry="45.93"/><path class="cls-1" d="M208.2,245.17c-.08,0-.19-.43-.31-1.22,0-.2-.06-.42-.09-.67s-.12-.5-.18-.79-.12-.59-.19-.91a3.12,3.12,0,0,0-.14-.5l-.16-.53A19.45,19.45,0,0,0,200,230.46l-.81-.58-.88-.52-.45-.26c-.15-.08-.3-.17-.46-.24l-1-.44-.49-.23-.52-.17-1-.37c-.35-.11-.72-.18-1.08-.27a10.11,10.11,0,0,0-1.12-.24,19.38,19.38,0,0,0-2.32-.24c-.39,0-.79,0-1.19,0l-1.21.08c-.21,0-.41,0-.62,0l-.6.1c-.41.08-.82.13-1.23.21a19.91,19.91,0,0,0-2.43.74l-.6.23-.3.11-.29.15-1.17.57c-.39.21-.75.46-1.13.69a5.35,5.35,0,0,0-.56.36l-.54.4a20,20,0,0,0-2.05,1.77l-.92,1-.23.26-.21.27-.41.56-.42.56-.36.6-.36.61-.19.3-.15.32c-.2.42-.41.85-.61,1.28s-.33.89-.49,1.34a18.09,18.09,0,0,0,0,11.45c.16.45.32.9.49,1.35s.41.85.61,1.28l.15.32.19.3.36.6.36.6.42.56.41.56.21.28.23.25.92,1a21.19,21.19,0,0,0,2.05,1.76l.54.41c.17.13.37.24.56.36.38.22.74.47,1.13.68l1.17.58.29.14.3.12.6.22A19.91,19.91,0,0,0,185,263c.41.09.82.14,1.23.21l.6.1c.21,0,.41,0,.62.05l1.21.07c.4,0,.8,0,1.19,0a16,16,0,0,0,2.32-.24,8.25,8.25,0,0,0,1.12-.24c.36-.09.73-.16,1.08-.27l1-.36.52-.18.49-.22,1-.44a4.09,4.09,0,0,0,.46-.25l.45-.26.88-.52.81-.58a19.35,19.35,0,0,0,7.11-10.09l.16-.52a3.43,3.43,0,0,0,.14-.5c.07-.33.13-.64.19-.92s.13-.55.18-.79.06-.47.09-.66c.12-.8.23-1.22.31-1.22s.15.42.19,1.25c0,.2,0,.44,0,.69s0,.53-.06.83-.06.63-.09,1a3.4,3.4,0,0,1-.08.53q-.06.27-.12.57a18.18,18.18,0,0,1-2,5.4,19.64,19.64,0,0,1-5,5.84l-.86.67c-.31.21-.63.4-.95.61l-.48.3a4.08,4.08,0,0,1-.5.29l-1,.52-.53.27-.56.21-1.14.44c-.39.13-.8.22-1.2.34a10.5,10.5,0,0,1-1.23.3,19.55,19.55,0,0,1-2.58.33c-.44,0-.88.07-1.33.07l-1.35-.05c-.23,0-.46,0-.69,0l-.68-.1c-.46-.07-.92-.12-1.38-.21a20.71,20.71,0,0,1-2.74-.77l-.69-.25-.34-.12-.33-.16-1.33-.63c-.44-.23-.86-.5-1.29-.75-.21-.14-.43-.25-.63-.4l-.61-.45a22.92,22.92,0,0,1-2.35-2c-.34-.38-.7-.76-1.05-1.14l-.26-.29-.24-.32-.47-.62-.48-.64-.42-.67-.41-.68-.21-.34c-.07-.12-.12-.24-.18-.36-.23-.49-.47-1-.7-1.46l-.57-1.52a20.28,20.28,0,0,1,0-13l.57-1.53c.23-.49.47-1,.7-1.45.06-.12.11-.24.18-.36l.21-.34.41-.68.42-.68.48-.63.47-.63.24-.31.26-.29,1.05-1.15a22.92,22.92,0,0,1,2.35-2l.61-.44c.2-.15.42-.27.63-.4.43-.25.85-.52,1.29-.76l1.33-.63.33-.15.34-.13.69-.24a22.4,22.4,0,0,1,2.74-.78c.46-.09.92-.14,1.38-.21l.68-.09c.23,0,.46,0,.69,0l1.35-.05c.45,0,.89,0,1.33.06a18,18,0,0,1,2.58.34c.42.05.82.2,1.23.29s.81.21,1.2.35l1.14.43.56.22.53.26,1,.53a4,4,0,0,1,.5.28l.48.31c.32.2.64.39.95.6l.86.67a19.67,19.67,0,0,1,5,5.85,18.09,18.09,0,0,1,2,5.4l.12.56a3.35,3.35,0,0,1,.08.54c0,.34.06.67.09,1s.06.58.06.83,0,.49,0,.7C208.35,244.74,208.29,245.17,208.2,245.17Z"/><path class="cls-1" d="M137.24,318.31c.13-.1,1.35,1.22,3.45,3.69,1.05,1.24,2.32,2.77,3.78,4.56l2.34,2.86,1.27,1.58.63.77.21.25.29-.22,1-.68,2-1.41,4.3-3,9.55-6.59,10.62-7.26,12.17-8.24.32.21L201,312.92l10.53,7.23,9.48,6.56,4.28,3,2,1.41,1,.68.12.09.07.05.07.05.14.11,5.73-4.68c1.85-1.49,3.44-2.76,4.76-3.79,2.62-2.06,4.13-3.14,4.24-3s-1.19,1.45-3.62,3.73c-1.22,1.14-2.73,2.52-4.48,4.11L232.49,331,231,332.38l-.81.72-1.33,1.17-8.92-5.87L210.28,322l-10.61-7.1-10.85-7.32L178,314.87,167.31,322l-9.69,6.39-9.07,5.94-1.1-1.46-.66-.89-1.2-1.62c-.78-1.06-1.51-2.05-2.19-3-1.36-1.86-2.52-3.47-3.46-4.8C138.07,319.92,137.1,318.41,137.24,318.31Z"/><path class="cls-1" d="M163.56,324.14c-.52.44-2.81-1.42-5.1-4.15s-3.73-5.3-3.2-5.74,2.8,1.42,5.1,4.15S164.08,323.7,163.56,324.14Z"/><path class="cls-1" d="M226.81,311.6c.46.51-2.07,3.5-5.63,6.68s-6.83,5.34-7.29,4.83,2.07-3.5,5.64-6.68S226.36,311.09,226.81,311.6Z"/><ellipse class="cls-1" cx="188.83" cy="285.33" rx="1.24" ry="20.79"/><ellipse class="cls-1" cx="188.58" cy="284.13" rx="79.93" ry="1.24"/><path class="cls-1" d="M74.73,212.34c-.19.21-4.2-3.07-9.67-9.37a160.46,160.46,0,0,1-18.51-26.69c-1.57-2.76-3-5.5-4.36-8.17s-2.6-5.27-3.73-7.78c-2.28-5-4.12-9.6-5.56-13.49C30,139,28.82,134,29.15,133.92s2.11,4.69,5.38,12.27c1.63,3.78,3.63,8.27,6,13.17,1.17,2.46,2.46,5,3.81,7.65s2.81,5.33,4.37,8.06a213,213,0,0,0,17.7,26.79C71.47,208.36,75,212.06,74.73,212.34Z"/><path class="cls-1" d="M303.11,212.58c-.27-.26,3.12-4.12,8.23-10.62,2.54-3.27,5.51-7.19,8.62-11.68s6.35-9.54,9.52-15a228.77,228.77,0,0,0,14.25-28.92c3.13-7.65,4.63-12.55,5-12.47s-.59,5.2-3.32,13.09a170,170,0,0,1-13.75,29.54,178.77,178.77,0,0,1-9.81,15c-3.24,4.47-6.39,8.32-9.12,11.47C307.18,209.35,303.33,212.79,303.11,212.58Z"/><path class="cls-1" d="M191.53,86.34A2.52,2.52,0,1,1,189,83.82,2.51,2.51,0,0,1,191.53,86.34Z"/><path class="cls-1" d="M205.05,86.34c-.08,0-.18-.36-.3-1l-.08-.55c0-.2-.1-.41-.16-.65l-.17-.75c-.05-.27-.17-.55-.25-.84a15.83,15.83,0,0,0-1.9-4,15.62,15.62,0,0,0-4-4.22l-.67-.47c-.23-.15-.48-.28-.72-.42s-.48-.3-.74-.41l-.8-.36-.4-.18-.42-.15-.85-.29c-.29-.09-.59-.14-.89-.22a7,7,0,0,0-.91-.19,13.29,13.29,0,0,0-1.9-.19c-.33,0-.65,0-1,0l-1,.06a4.21,4.21,0,0,0-.5,0l-.5.08c-.33.06-.67.1-1,.18a16,16,0,0,0-2,.6l-.49.19-.25.09-.24.12-1,.47c-.31.18-.61.38-.92.57a4.43,4.43,0,0,0-.46.29l-.44.33a17.4,17.4,0,0,0-1.67,1.44l-.75.84-.19.21-.17.23-.33.45-.34.46-.3.49-.3.49-.15.25-.12.26-.5,1c-.13.36-.26.73-.4,1.09A14.76,14.76,0,0,0,175,91c.14.37.27.73.4,1.1s.33.7.5,1l.12.26.15.25.3.49.3.49.34.46.33.45.17.23.19.21.75.84a17.4,17.4,0,0,0,1.67,1.44l.44.33c.14.11.31.2.46.3l.92.56,1,.47.24.12.25.09.49.19a16,16,0,0,0,2,.6c.33.08.67.12,1,.18l.5.08a4.21,4.21,0,0,0,.5,0l1,.07c.33,0,.65,0,1,0a13.29,13.29,0,0,0,1.9-.19,7,7,0,0,0,.91-.19c.3-.08.6-.13.89-.22l.85-.29.42-.15.4-.18.8-.36c.26-.11.49-.28.74-.41s.49-.27.72-.42l.67-.47a15.62,15.62,0,0,0,4-4.22,15.83,15.83,0,0,0,1.9-4c.08-.29.2-.57.25-.84l.17-.75c.06-.23.12-.45.16-.65l.08-.55c.12-.65.22-1,.3-1s.16.35.2,1c0,.18,0,.37,0,.58s0,.44,0,.69l-.06.81c0,.3-.11.59-.16.92a14.86,14.86,0,0,1-1.64,4.51,16.28,16.28,0,0,1-4.13,4.9l-.72.56c-.25.18-.52.34-.78.51s-.53.36-.82.5l-.87.44-.45.22-.47.18-.95.37c-.32.11-.66.19-1,.29s-.67.2-1,.25a15,15,0,0,1-2.15.28c-.37,0-.74.06-1.11.06l-1.14,0-.57,0-.57-.08c-.39-.06-.77-.1-1.16-.17a19.26,19.26,0,0,1-2.3-.65l-.57-.2-.29-.11L182,102l-1.12-.52-1.08-.63c-.17-.12-.36-.21-.53-.34l-.51-.37a20.26,20.26,0,0,1-2-1.65l-.88-1-.22-.24-.2-.26-.4-.53-.4-.53-.35-.56-.35-.57-.17-.29-.15-.3c-.2-.4-.39-.81-.59-1.22s-.31-.85-.47-1.28a16.92,16.92,0,0,1,0-10.89c.16-.43.31-.86.47-1.28l.59-1.22.15-.3.17-.29.35-.57.35-.56.4-.53.4-.53.2-.26.22-.24.88-1a20.26,20.26,0,0,1,2-1.65l.51-.37c.17-.13.36-.22.53-.33.36-.22.72-.44,1.08-.63l1.12-.53.27-.13.29-.1.57-.21a17.51,17.51,0,0,1,2.3-.64c.39-.08.77-.12,1.16-.18l.57-.08.57,0,1.14,0c.37,0,.74,0,1.11.06a16.61,16.61,0,0,1,2.15.28c.36.05.69.17,1,.25s.68.18,1,.29l.95.37.47.18.45.22.87.45c.29.14.55.33.82.49s.53.33.78.51l.72.56a16.28,16.28,0,0,1,4.13,4.9A14.86,14.86,0,0,1,205,82.3c0,.33.14.62.16.92l.06.81c0,.25,0,.48,0,.69s0,.41,0,.58C205.21,86,205.14,86.34,205.05,86.34Z"/><path class="cls-1" d="M237.58,82.45a48.12,48.12,0,0,0-7-21.28c-.41-.66-.82-1.29-1.25-1.91-.45.35-.91.69-1.39,1,.39.58.77,1.19,1.14,1.81a47,47,0,0,1,6.48,20.54,47.69,47.69,0,0,1-2.22,18.14,50.39,50.39,0,0,1-2.45,6,49.34,49.34,0,0,1-3.35,5.72,48.26,48.26,0,0,1-4.23,5.31,51.72,51.72,0,0,1-5.06,4.73,50.39,50.39,0,0,1-5.83,4,46.46,46.46,0,0,1-6.47,3.12c-.57.2-1.12.45-1.7.63l-1.74.57-1.76.48-.44.12-.45.1-.9.2a44.88,44.88,0,0,1-7.33,1,51,51,0,0,1-7.51-.19,50.43,50.43,0,0,1-7.37-1.39,46.27,46.27,0,0,1-7-2.52l-.83-.38-.42-.19-.41-.22-1.62-.84-1.57-.92c-.53-.3-1-.66-1.53-1a45.36,45.36,0,0,1-5.68-4.41,49.76,49.76,0,0,1-4.85-5.12,52.74,52.74,0,0,1-4-5.69A46.78,46.78,0,0,1,143.8,97.5a49.36,49.36,0,0,1-1.13-6.38,46.05,46.05,0,0,1-.23-6.3,47.21,47.21,0,0,1,1.87-11.91,46.57,46.57,0,0,1,4.45-10.35c.59-1,1.2-2,1.84-2.9l-1.27-1.42c-.77,1.07-1.51,2.19-2.21,3.35a47.35,47.35,0,0,0-4.77,10.74,49.18,49.18,0,0,0-1.9,19A52.26,52.26,0,0,0,141.59,98a50.58,50.58,0,0,0,2.13,6.63,49.21,49.21,0,0,0,3.14,6.4,53.21,53.21,0,0,0,4.12,6,50.88,50.88,0,0,0,5.09,5.41,47.66,47.66,0,0,0,6,4.66c.53.34,1.05.72,1.61,1l1.65,1,1.71.9.43.22.44.2.87.41a47.55,47.55,0,0,0,7.34,2.66,52.87,52.87,0,0,0,7.76,1.47,53.54,53.54,0,0,0,7.9.2,48.57,48.57,0,0,0,7.73-1.06l.94-.21.47-.11.47-.13,1.86-.52,1.82-.6c.61-.19,1.19-.45,1.79-.67a48,48,0,0,0,6.8-3.3,50.53,50.53,0,0,0,6.11-4.22,48.57,48.57,0,0,0,9.71-10.59,48,48,0,0,0,6-12.34A49.61,49.61,0,0,0,237,95,48.28,48.28,0,0,0,237.58,82.45Z"/><path class="cls-1" d="M189,0c.68,0,1.23,15.74,1.23,35.15S189.7,70.3,189,70.3s-1.24-15.74-1.24-35.15S188.33,0,189,0Z"/><path class="cls-1" d="M200.49,11.19c.25.22-.8,1.93-2.72,4.52-1,1.3-2.14,2.82-3.48,4.48-.67.83-1.37,1.7-2.11,2.59L191,24.14l-2.14,2.52-.42-.51-1.9-2.32-1.13-1.4c-.74-.92-1.45-1.82-2.11-2.67-1.34-1.72-2.51-3.28-3.47-4.62-1.92-2.68-3-4.44-2.71-4.66s1.8,1.16,4.06,3.55c1.13,1.19,2.45,2.64,3.87,4.28.72.81,1.46,1.68,2.23,2.58l1.16,1.37.46.55h0l.23-.26,1.17-1.34c.77-.87,1.51-1.7,2.23-2.49,1.43-1.58,2.75-3,3.88-4.13C198.71,12.28,200.23,11,200.49,11.19Z"/><path class="cls-1" d="M202.72,34.39c.26.23-1.05,2.13-3.36,5-1.15,1.44-2.56,3.12-4.15,5q-1.2,1.4-2.52,2.88l-1.34,1.51-2.3,2.53,0,0-2.3-2.56-1.34-1.51c-.87-1-1.71-2-2.5-2.88-1.58-1.84-3-3.53-4.13-5-2.3-2.87-3.6-4.77-3.34-5s2,1.25,4.63,3.83c1.32,1.29,2.85,2.85,4.53,4.62.84.88,1.71,1.81,2.61,2.78l1.37,1.48.34.38.14.15h0l.16-.17.35-.38,1.37-1.48c.9-1,1.78-1.9,2.62-2.78,1.68-1.76,3.23-3.32,4.55-4.61C200.71,35.64,202.47,34.16,202.72,34.39Z"/><path class="cls-1" d="M138.12,118c-.13.12-.68-.28-1.59-1.1a17,17,0,0,1-1.56-1.59c-.29-.32-.62-.65-.92-1l-1-1.23a38.76,38.76,0,0,1-4-6.61,38.21,38.21,0,0,1-2.93-9l-.12-.62-.1-.62-.18-1.23-.12-1.22-.06-.6,0-.6a39,39,0,0,1,0-4.58,38.09,38.09,0,0,1,1.22-7.63c1.13-4.25,2.6-6.61,2.9-6.46s-.53,2.65-1.19,6.82A51.87,51.87,0,0,0,127.8,88c0,1.38,0,2.83.15,4.33,0,.19,0,.37,0,.56s0,.38.07.57c0,.38.09.76.13,1.14l.18,1.16.09.58.12.59a43.52,43.52,0,0,0,2.58,8.57,52.78,52.78,0,0,0,3.37,6.56C136.74,115.61,138.4,117.7,138.12,118Z"/><path class="cls-1" d="M236.72,121.14c-.26-.29,1.92-2.37,4.77-6.17a49.53,49.53,0,0,0,4.32-7.08,46.2,46.2,0,0,0,3.5-9.49c.1-.44.21-.88.31-1.31s.18-.87.27-1.3c.18-.85.3-1.71.44-2.55.24-1.68.42-3.32.51-4.89a70.17,70.17,0,0,0,0-8.35c-.29-4.77-.86-7.7-.53-7.8s1.52,2.74,2.26,7.61a48.76,48.76,0,0,1,.54,8.64,46.3,46.3,0,0,1-.38,5.12c-.13.88-.24,1.78-.43,2.69-.09.45-.16.91-.27,1.36s-.21.92-.32,1.38a42,42,0,0,1-3.87,9.94,39.9,39.9,0,0,1-5,7.13C239.51,119.74,236.9,121.36,236.72,121.14Z"/><circle class="cls-1" cx="126.63" cy="181.34" r="3.07"/><path class="cls-1" d="M250.52,179.86a3.07,3.07,0,1,1-3.07-3.08A3.06,3.06,0,0,1,250.52,179.86Z"/><path class="cls-1" d="M160.91,261.77c-.14.1-.55-.22-1.18-.89-.15-.17-.33-.36-.51-.58l-.55-.73-.61-.85-.61-1a24.36,24.36,0,0,1-1.26-2.41c-.19-.45-.38-.92-.58-1.41s-.35-1-.52-1.54-.29-1.09-.43-1.65-.22-1.16-.32-1.76a23.34,23.34,0,0,1-.19-3.77,22.07,22.07,0,0,1,1.45-7.11,22.46,22.46,0,0,1,2.78-5.16c2-2.71,3.72-3.88,3.94-3.63s-1,1.79-2.45,4.55a29.81,29.81,0,0,0-2.12,5,23.8,23.8,0,0,0-1.12,6.43,25.22,25.22,0,0,0,.11,3.39c.09.54.14,1.08.24,1.6s.18,1,.31,1.52.24,1,.38,1.44.29.91.42,1.35c.33.85.59,1.66.92,2.37l.43,1,.43.91c.12.29.24.56.35.81s.22.47.32.67C160.91,261.17,161.05,261.68,160.91,261.77Z"/><path class="cls-1" d="M216.92,261.77c-.15-.07-.08-.61.19-1.49.07-.22.14-.46.23-.73s.17-.55.26-.86l.32-1c.12-.34.21-.72.33-1.11a42.51,42.51,0,0,0,1.27-5.47,31.48,31.48,0,0,0,.38-6.77,27.24,27.24,0,0,0-1.21-6.62,29.6,29.6,0,0,0-2.17-5.11c-1.53-2.81-2.86-4.33-2.63-4.59s2.07.89,4.1,3.65a22.7,22.7,0,0,1,2.85,5.3,24.41,24.41,0,0,1,1.53,7.23,27.34,27.34,0,0,1-.61,7.34,28.73,28.73,0,0,1-1.87,5.65c-.18.38-.33.75-.51,1.09l-.51.95-.45.8-.44.66C217.44,261.47,217.07,261.85,216.92,261.77Z"/><path class="cls-1" d="M200.31,215.13c-.26.22-1.76-1.08-4-3.36-1.1-1.15-2.39-2.53-3.79-4.1-.7-.78-1.43-1.61-2.18-2.48l-1.14-1.32-.24-.28h0l-.12.14-.3.33-1.19,1.3c-.79.85-1.55,1.67-2.29,2.44-1.46,1.54-2.81,2.91-4,4-2.32,2.24-3.88,3.52-4.13,3.29s.84-1.91,2.82-4.46c1-1.27,2.2-2.76,3.58-4.39.68-.81,1.41-1.66,2.17-2.53l1.17-1.33,2-2.24.32-.36,2.07,2.47,1.11,1.35c.72.88,1.41,1.74,2.07,2.57,1.3,1.65,2.45,3.15,3.38,4.44C199.54,213.22,200.57,214.91,200.31,215.13Z"/><path class="cls-1" d="M200.31,200.82c-.25.24-1.78-.94-4.05-3-1.14-1-2.46-2.31-3.9-3.75l-2.24-2.27L189,190.56l-.3-.31h0l-.3.31-1.17,1.22-2.24,2.27c-1.44,1.44-2.76,2.71-3.9,3.75-2.27,2.08-3.8,3.26-4,3s.83-1.83,2.78-4.22c1-1.2,2.16-2.59,3.51-4.11.68-.76,1.39-1.56,2.14-2.37l1.14-1.25,2.09-2.22,2.09,2.22,1.14,1.25c.75.81,1.46,1.61,2.14,2.37,1.35,1.52,2.54,2.91,3.51,4.11C199.48,199,200.56,200.59,200.31,200.82Z"/><path class="cls-1" d="M169.27,372c-.25-.12.73-2.76,2.59-7.1.93-2.17,2.08-4.77,3.4-7.69l2.12-4.61,2.09-4.52v0h0l0,0-.09-.19c-.11-.25-.23-.51-.35-.76l-.07-.16h0l0,0-.08.06-1.35,1-2.76,2c-8.19,5.93-15.68,11.19-21.18,14.9s-9,5.87-9.2,5.59,2.94-2.93,8.18-7,12.56-9.56,20.75-15.49l6.67-4.81,2.2,4.94-1.5,3-1.21,2.43q-1.2,2.37-2.29,4.52c-1.46,2.86-2.77,5.38-3.89,7.46C171,369.67,169.53,372.08,169.27,372Z"/><ellipse class="cls-1" cx="186.47" cy="373.08" rx="1.24" ry="20.55"/><path class="cls-1" d="M225.69,367c-.21.27-3.51-1.93-8.67-5.71s-12.18-9.14-19.84-15.17l-.28-.22-.05,0h0s0,0,0,0l-.07.06-.29.23-1.13.91-1.11.9-.26.21h0l0,0,.2.32.76,1.26,1.48,2.44c1,1.61,1.87,3.14,2.74,4.6,1.73,2.92,3.24,5.53,4.47,7.72,2.47,4.39,3.83,7.1,3.58,7.25s-2.08-2.26-4.91-6.42c-1.42-2.08-3.09-4.59-4.94-7.43l-2.9-4.5-1.54-2.41c-.7-1.12-1.41-2.26-2.14-3.41l6-5c.63.49,1.25,1,1.89,1.48,7.66,6,14.51,11.61,19.39,15.75S225.9,366.75,225.69,367Z"/><path class="cls-1" d="M49.91,99.93c-.2.06-1.29-3-2.37-6.78s-1.72-7-1.52-7,1.17,3,2.25,6.82S50.11,99.87,49.91,99.93Z"/><path class="cls-1" d="M59.35,127c-.19.07-1.52-2.87-2.84-6.61-.69-1.86-1.22-3.57-1.58-4.82a6.07,6.07,0,0,1-.44-2.08,6.15,6.15,0,0,1,.94,1.9c.49,1.21,1.11,2.89,1.79,4.75C58.54,123.91,59.55,127,59.35,127Z"/><path class="cls-1" d="M70.79,153.36a5.78,5.78,0,0,1-1.14-1.79c-.61-1.15-1.4-2.77-2.22-4.57-1.61-3.63-2.73-6.65-2.53-6.73s1.62,2.8,3.22,6.42c.82,1.8,1.53,3.45,2,4.65A6.32,6.32,0,0,1,70.79,153.36Z"/><path class="cls-1" d="M84.61,178.5c-.16.1-2-2.52-4-6-.49-.86-1-1.68-1.37-2.44s-.74-1.45-1-2c-.56-1.18-.86-1.93-.76-2s.55.62,1.23,1.72c.34.56.72,1.23,1.16,2s.93,1.55,1.42,2.41C83.22,175.59,84.81,178.38,84.61,178.5Z"/><path class="cls-1" d="M101.36,201.79c-.08.07-.66-.5-1.53-1.47-.43-.48-.94-1.07-1.49-1.73-.28-.33-.58-.67-.86-1s-.58-.76-.88-1.16c-1.18-1.59-2.23-3-2.95-4.13s-1.07-1.83-1-1.89.62.55,1.42,1.57,1.93,2.41,3.12,4l.86,1.17c.27.37.56.72.82,1.06.52.68,1,1.3,1.36,1.82C101,201,101.44,201.72,101.36,201.79Z"/><path class="cls-1" d="M328.88,101.51c-.2-.05.5-3.15,1.48-7s1.83-6.85,2-6.8-.34,3.19-1.3,7S329.09,101.57,328.88,101.51Z"/><path class="cls-1" d="M320.17,128.53c-.18-.07.77-3.11,2.11-6.79.65-1.85,1.27-3.51,1.76-4.7a5.9,5.9,0,0,1,.9-1.89,6,6,0,0,1-.39,2.07c-.36,1.23-.91,2.93-1.55,4.78C321.65,125.69,320.38,128.61,320.17,128.53Z"/><path class="cls-1" d="M308.92,154.58a5.65,5.65,0,0,1,.68-2c.5-1.19,1.27-2.78,2.08-4.56s1.62-3.36,2.21-4.51,1-1.84,1.07-1.79a5.57,5.57,0,0,1-.59,2c-.46,1.2-1.18,2.83-2,4.61s-1.67,3.35-2.29,4.48S309,154.63,308.92,154.58Z"/><path class="cls-1" d="M295,179.29c-.15-.1,1.39-2.88,3.49-6.19s3.77-6,3.95-5.91-1.29,2.94-3.31,6.31S295.16,179.42,295,179.29Z"/><path class="cls-1" d="M278.07,202.08c-.14-.12,1.74-2.68,4.25-5.68s4.49-5.5,4.66-5.37-1.63,2.76-4.07,5.84S278.25,202.24,278.07,202.08Z"/><circle class="cls-2" cx="188.83" cy="134.04" r="5.12"/><path class="cls-2" d="M193.24,245.17a4.42,4.42,0,1,1-4.41-4.42A4.41,4.41,0,0,1,193.24,245.17Z"/><circle class="cls-2" cx="108.65" cy="283.89" r="7.56" transform="translate(-100.37 63.19) rotate(-22.5)"/><circle class="cls-2" cx="269.19" cy="284.13" r="7.56"/><path class="cls-2" d="M85.38,284.13a4.3,4.3,0,1,1-4.29-4.3A4.29,4.29,0,0,1,85.38,284.13Z"/><path class="cls-2" d="M298.1,284.13a4.3,4.3,0,1,1-4.3-4.3A4.3,4.3,0,0,1,298.1,284.13Z"/><path class="cls-2" d="M201.31,342.4A12.3,12.3,0,1,1,189,330.1,12.29,12.29,0,0,1,201.31,342.4Z"/><path class="cls-2" d="M146.89,370.43a3.42,3.42,0,1,1-3.41-3.42A3.42,3.42,0,0,1,146.89,370.43Z"/><path class="cls-2" d="M172.87,372a3.6,3.6,0,1,1-3.6-3.59A3.59,3.59,0,0,1,172.87,372Z"/><path class="cls-2" d="M190.33,393.05a3.86,3.86,0,1,1-3.86-3.86A3.85,3.85,0,0,1,190.33,393.05Z"/><path class="cls-2" d="M212.15,372.9a5,5,0,1,1-5-4.94A4.95,4.95,0,0,1,212.15,372.9Z"/><path class="cls-2" d="M229.58,368a3.89,3.89,0,1,1-3.89-3.89A3.89,3.89,0,0,1,229.58,368Z"/><path class="cls-2" d="M95.37,231.83a4.3,4.3,0,1,1-4.29-4.3A4.29,4.29,0,0,1,95.37,231.83Z"/><path class="cls-2" d="M292,230.09a4.3,4.3,0,1,1-4.3-4.3A4.29,4.29,0,0,1,292,230.09Z"/><path class="cls-2" d="M155,58.72a5.23,5.23,0,1,1-5.23-5.23A5.23,5.23,0,0,1,155,58.72Z"/><path class="cls-2" d="M234.06,60.17a5.23,5.23,0,1,1-5.23-5.23A5.23,5.23,0,0,1,234.06,60.17Z"/><path class="cls-3" d="M203.08,66.94c.28.37-.94,1.75-2.58,3.25s-3.14,2.57-3.47,2.26.65-1.93,2.36-3.48S202.81,66.58,203.08,66.94Z"/><path class="cls-3" d="M207,72.22c.27.36-.86,1.67-2.68,2.68s-3.52,1.29-3.68.87,1.17-1.36,2.88-2.31S206.67,71.85,207,72.22Z"/><path class="cls-3" d="M211.88,77.59c.12.19-.18.63-.81,1.14a9.87,9.87,0,0,1-2.78,1.5,9.75,9.75,0,0,1-3.09.59c-.82,0-1.33-.15-1.35-.37,0-.46,1.76-1,3.89-1.77S211.62,77.2,211.88,77.59Z"/><path class="cls-3" d="M195.24,62.12c.44.09.39,2.16-.2,4.58s-1.51,4.28-1.94,4.16-.25-2.15.33-4.55S194.79,62,195.24,62.12Z"/><path class="cls-3" d="M188.7,109c-.45,0-.68-1.59-.51-3.46a9.42,9.42,0,0,1,.48-2.4c.26-.65.63-1,.84-.87s.25.48.32,1a12.35,12.35,0,0,1,0,2.37C189.66,107.6,189.16,109.08,188.7,109Z"/><path class="cls-3" d="M173.52,87.53c0,.1,0,.26-.27.44a2.86,2.86,0,0,1-1.14.46,6,6,0,0,1-1.75,0c-.63-.09-1.29-.25-1.92-.39-1.27-.26-2.52-.43-3.41-.68s-1.42-.5-1.4-.73.6-.38,1.52-.43a14.29,14.29,0,0,1,3.63.23c.72.16,1.34.36,1.88.51a11.94,11.94,0,0,0,1.41.31C172.87,87.39,173.41,87.32,173.52,87.53Z"/><path class="cls-3" d="M180.66,72.52c-.2.11-.62-.21-1.15-.81-.26-.31-.55-.68-.85-1.11-.15-.21-.3-.44-.45-.68s-.31-.52-.46-.8a6.52,6.52,0,0,1-.41-.84c-.11-.28-.19-.54-.27-.78-.16-.49-.28-.9-.4-1.24-.21-.66-.47-1.06-.33-1.26s.23-.1.48,0a2.3,2.3,0,0,1,.85.66,5.92,5.92,0,0,1,.8,1.26q.17.35.36.72a7.2,7.2,0,0,0,.38.72c.14.25.26.49.39.74s.26.5.37.73c.23.48.41.91.55,1.29C180.79,71.88,180.85,72.4,180.66,72.52Z"/><path class="cls-3" d="M185.13,70.89c-.23,0-.52-.42-.82-1.19a27.56,27.56,0,0,1-.91-3L183,65a9.14,9.14,0,0,1-.28-1.48,2.33,2.33,0,0,1,.17-1.11c.13-.25.27-.35.38-.32s.18.17.26.38.18.46.33.8.36.73.58,1.25a12.69,12.69,0,0,1,.57,1.71,14,14,0,0,1,.46,3.21C185.46,70.32,185.35,70.85,185.13,70.89Z"/><path class="cls-3" d="M177.2,76.57c-.2.11-.57-.14-1.16-.51a14.59,14.59,0,0,1-2.21-1.84c-1.6-1.58-2.64-3.12-2.31-3.44s1.87.7,3.47,2.26a15.85,15.85,0,0,1,1.88,2.2,2.47,2.47,0,0,1,.42.88C177.34,76.36,177.3,76.52,177.2,76.57Z"/><path class="cls-3" d="M174,82.85c-.19.42-2.12-.07-4.12-1.41-.5-.33-1-.71-1.3-1a4,4,0,0,0-.5-.34l-.54-.32a2.19,2.19,0,0,1-.78-.71c-.14-.23-.13-.41-.05-.48s.24-.06.44,0l.82.13c.18,0,.39.07.62.13a4.52,4.52,0,0,1,.78.31,16.35,16.35,0,0,1,1.42.89C172.63,81.33,174.15,82.44,174,82.85Z"/><path class="cls-3" d="M164.36,95.89c-.2-.41,1.8-1.78,4.52-2.91s5.1-1.59,5.25-1.17-1.94,1.57-4.61,2.69S164.56,96.3,164.36,95.89Z"/><path class="cls-3" d="M170,103.07c-.28-.36,1.16-1.95,3.22-3.55.51-.4,1-.76,1.48-1.07s.89-.56,1.22-.78c.67-.41,1-.75,1.25-.66s.14.22.08.5a2.77,2.77,0,0,1-.52,1,10.34,10.34,0,0,1-1.09,1.13c-.42.38-.9.77-1.41,1.17C172.14,102.42,170.25,103.43,170,103.07Z"/><path class="cls-3" d="M177.9,111c-.4-.19.36-2.64,2-5.28.42-.66.85-1.27,1.26-1.8s.8-1,1.08-1.33a9.1,9.1,0,0,0,.61-.89c.14-.23.24-.38.36-.38s.22.16.27.49a2.93,2.93,0,0,1-.21,1.33,11.2,11.2,0,0,1-.85,1.64c-.34.56-.72,1.18-1.13,1.82C179.71,109.1,178.32,111.15,177.9,111Z"/><path class="cls-3" d="M198.5,108.88c-.41.2-1.56-1.32-2.65-3.35s-1.7-3.84-1.31-4.07,1.67,1.22,2.77,3.29S198.91,108.68,198.5,108.88Z"/><path class="cls-3" d="M205.34,103.13c-.26.37-1.84-.26-3.44-1.53s-2.6-2.65-2.3-3,1.76.47,3.32,1.69S205.6,102.75,205.34,103.13Z"/><path class="cls-3" d="M209.32,97.64c-.21.4-1.76,0-3.49-.85s-3-1.79-2.85-2.21,1.79-.13,3.56.72S209.54,97.24,209.32,97.64Z"/><path class="cls-3" d="M213.11,92.05c-.07.22-.59.25-1.38.25a26.32,26.32,0,0,1-3.12-.18A7.62,7.62,0,0,1,205.44,91c-.74-.5-1-1-.89-1.19s.64,0,1.37.13a27.15,27.15,0,0,0,2.91.5,14.25,14.25,0,0,1,3.13.68C212.76,91.46,213.18,91.84,213.11,92.05Z"/><path class="cls-3" d="M214.27,84.88c-.07.46-2,.54-4.37.83s-4.27.68-4.44.25c-.08-.21.32-.6,1.08-1a10.62,10.62,0,0,1,6.45-.79C213.82,84.38,214.3,84.66,214.27,84.88Z"/><path class="cls-3" d="M222.94,220.81c.27.37-1.69,2.22-4.18,4.36s-4.62,3.79-4.95,3.47,1.32-2.53,3.88-4.72S222.68,220.44,222.94,220.81Z"/><path class="cls-3" d="M227.33,228.35c.12.45-1.83,1.34-4.08,2.59s-4.07,2.38-4.39,2c-.15-.17.13-.7.76-1.36a11.54,11.54,0,0,1,2.83-2.13,11.85,11.85,0,0,1,3.33-1.24C226.68,228.08,227.27,228.13,227.33,228.35Z"/><path class="cls-3" d="M233.34,236.78c0,.46-2.58,1.07-5.78,1.77s-5.85,1.2-6,.76,2.33-1.67,5.65-2.38S233.3,236.33,233.34,236.78Z"/><path class="cls-3" d="M232.82,245.28c0,.46-2.36.85-5.26,1s-5.3.1-5.35-.35,2.28-1.11,5.24-1.3S232.82,244.83,232.82,245.28Z"/><path class="cls-3" d="M229.84,255.67c-.13.43-2.18.19-4.52-.71s-4-2.12-3.82-2.52,2.14.1,4.42,1S230,255.23,229.84,255.67Z"/><path class="cls-3" d="M227.21,264.48c-.07.22-.68.26-1.6.09a14.93,14.93,0,0,1-6.52-3.18c-.18-.16-.33-.31-.46-.45l-.1-.1a.64.64,0,0,1-.13-.17.76.76,0,0,1-.12-.3.72.72,0,0,1,0-.29.38.38,0,0,1,.16-.24c.15-.07.2,0,.21.06a.28.28,0,0,1,0,.09s0,.07,0,.05a.21.21,0,0,0,.11,0l.09,0,.12.05H219l.12,0c.18.06.36.14.57.23.84.35,1.94.9,3.16,1.49C225.3,263.1,227.33,264,227.21,264.48Z"/><path class="cls-3" d="M151.57,222.88c.33-.33,2.49,1.3,5,3.43.63.53,1.23,1.06,1.75,1.53s1,.88,1.4,1.19c.79.64,1.39.95,1.34,1.18s-.22.18-.56.17a3.81,3.81,0,0,1-1.37-.34,9.26,9.26,0,0,1-1.75-1c-.6-.43-1.23-.91-1.88-1.46C152.94,225.39,151.25,223.2,151.57,222.88Z"/><path class="cls-3" d="M145.7,230.76c.15-.43,2.91.19,6.16,1.38.81.29,1.58.6,2.27.89s1.29.59,1.78.81c1,.44,1.62.55,1.65.78s-.16.24-.5.33a3.94,3.94,0,0,1-1.47,0,17.41,17.41,0,0,1-2-.5c-.72-.22-1.5-.48-2.31-.78C148.05,232.5,145.54,231.19,145.7,230.76Z"/><path class="cls-3" d="M144.32,238.58c.13-.45,2.75-.06,6,.27s5.84.54,5.87,1c0,.22-.65.47-1.75.62a19.57,19.57,0,0,1-8.5-.92C144.85,239.18,144.26,238.79,144.32,238.58Z"/><path class="cls-3" d="M141.48,245.92c0-.45,3-.92,6.77-1s6.81.14,6.83.6-3,.92-6.77,1.05S141.49,246.38,141.48,245.92Z"/><path class="cls-3" d="M145,253.67c0-.46,2.44-1,5.46-1.71s5.51-1.21,5.68-.77-2.17,1.68-5.32,2.38S145,254.12,145,253.67Z"/><path class="cls-3" d="M148.37,260.54c-.17-.42,1.87-1.64,4.55-2.71s5-1.6,5.17-1.17-1.87,1.63-4.56,2.7S148.54,261,148.37,260.54Z"/><path class="cls-3" d="M152.28,266.41c-.25-.38,1.4-1.84,3.67-3.25s4.32-2.23,4.55-1.84-1.42,1.85-3.68,3.24S152.53,266.79,152.28,266.41Z"/><path class="cls-3" d="M19,139.17c-.13-.18.26-.74,1.06-1.44a16.62,16.62,0,0,1,3.49-2.25,16,16,0,0,1,3.91-1.35c1.05-.2,1.73-.17,1.79.05.12.45-2.22,1.43-5,2.78S19.31,139.54,19,139.17Z"/><path class="cls-3" d="M21.6,146.24c-.18-.42,1.82-1.72,4.47-2.92s5-1.83,5.15-1.41-1.81,1.72-4.47,2.92S21.79,146.65,21.6,146.24Z"/><path class="cls-3" d="M22.23,155.5c-.21-.4,2.38-2.18,5.78-4s6.33-2.9,6.54-2.5-2.37,2.18-5.78,4S22.44,155.9,22.23,155.5Z"/><path class="cls-3" d="M27,162.36c-.17-.43,2.29-1.81,5.22-3.61s5.31-3.32,5.61-3-1.68,2.51-4.75,4.37S27.12,162.77,27,162.36Z"/><path class="cls-3" d="M29,169.79c-.21-.41,2.36-2.09,5.72-3.75s6.26-2.68,6.46-2.27-2.36,2.09-5.73,3.75S29.23,170.2,29,169.79Z"/><path class="cls-3" d="M33.76,176.91c-.19-.42,2.22-1.92,5.2-3.67s5.46-3.13,5.73-2.76-1.83,2.38-4.9,4.18S34,177.32,33.76,176.91Z"/><path class="cls-3" d="M38.34,182.74c-.25-.38,1.73-2.14,4.42-3.93.68-.45,1.32-.86,2-1.21a8,8,0,0,1,1.83-.76,3.78,3.78,0,0,1,1.37-.14c.32,0,.5.15.51.25s-.6.46-1.44,1c-.42.25-.91.58-1.46,1s-1.18.85-1.86,1.29C41,182,38.59,183.12,38.34,182.74Z"/><path class="cls-3" d="M39.25,191.42c-.25-.38,2.39-2.59,5.89-4.94s6.56-4,6.81-3.58-2.38,2.59-5.89,4.95S39.51,191.8,39.25,191.42Z"/><path class="cls-3" d="M44.4,197.48c-.25-.39,2.22-2.39,5.38-4.66s5.85-3.95,6.14-3.6-2,2.65-5.18,4.94S44.64,197.86,44.4,197.48Z"/><path class="cls-3" d="M48.58,203.5c-.23-.39,2.35-2.29,5.75-4.24.85-.49,1.67-.93,2.43-1.32s1.42-.69,1.94-1c1-.58,1.5-1.18,1.72-1.08s.11.29,0,.66a4,4,0,0,1-1,1.35,12.86,12.86,0,0,1-1.89,1.39c-.72.46-1.52.94-2.37,1.43C51.75,202.64,48.81,203.9,48.58,203.5Z"/><path class="cls-3" d="M55.49,208.12c-.2-.41,1.83-1.85,4.42-3.43s4.8-2.73,5.07-2.36-1.55,2.15-4.21,3.76S55.69,208.52,55.49,208.12Z"/><path class="cls-3" d="M60.39,216.29c-.26-.39,2-2.29,4.78-4.58s5.11-4.11,5.44-3.78-1.52,2.72-4.39,5.06S60.63,216.66,60.39,216.29Z"/><path class="cls-3" d="M63.26,222.48c-.27-.39,2.38-2.63,5.47-5.55l2.17-2.07c.66-.63,1.27-1.23,1.86-1.69a5.6,5.6,0,0,1,1.52-.9c.41-.14.66-.14.71,0s-.57.73-1.42,1.78c-.44.52-.94,1.18-1.57,1.9s-1.35,1.47-2.14,2.22C66.66,221.15,63.5,222.85,63.26,222.48Z"/><path class="cls-3" d="M314.43,219.35c-.22.4-3.08-.78-6.16-3s-5.14-4.49-4.84-4.82,2.79,1.35,5.8,3.48S314.65,219,314.43,219.35Z"/><path class="cls-3" d="M319.19,213.78c-.2.41-3-.54-6.2-2.12-.8-.39-1.56-.79-2.24-1.17a13.26,13.26,0,0,1-1.79-1.15c-1-.78-1.38-1.5-1.22-1.65s.79.2,1.82.65l1.86.79c.71.3,1.49.66,2.3,1.05C316.94,211.76,319.4,213.37,319.19,213.78Z"/><path class="cls-3" d="M324.81,207.54c-.22.4-2.82-.6-5.8-2.24s-5.23-3.29-5-3.69,2.81.61,5.8,2.24S325,207.14,324.81,207.54Z"/><path class="cls-3" d="M330,201.15c-.21.41-3.19-.7-6.78-2.22s-6.46-2.91-6.31-3.35,3.31.27,6.95,1.83S330.21,200.75,330,201.15Z"/><path class="cls-3" d="M332.31,195.83c-.17.42-3-.31-6.25-1.91a27.57,27.57,0,0,1-4-2.35l-.64-.5a1.3,1.3,0,0,1-.44-.71.46.46,0,0,1,.13-.49.5.5,0,0,1,.29-.06s0,0,0,.08a.28.28,0,0,0,.13.21.72.72,0,0,0,.33.18c.2.06.47.17.73.27,1.09.44,2.54,1.11,4.12,1.89C330,194,332.48,195.4,332.31,195.83Z"/><path class="cls-3" d="M334.68,189.66c-.15.42-2.65-.07-5.46-1.4s-4.78-3-4.54-3.34,2.52.56,5.24,1.85S334.83,189.22,334.68,189.66Z"/><path class="cls-3" d="M340.27,184.61c-.22.41-3-.69-6.31-2a35.29,35.29,0,0,1-5.85-2.54l.23-.31c0,.15,0,.26-.06.29s-.16,0-.29-.07l-.34-.2.57-.11c.8-.16,3.42.26,6.33,1.4C338,182.43,340.49,184.23,340.27,184.61Z"/><path class="cls-3" d="M345.75,180.2c-.14.43-3.73-.37-8-1.78-1.07-.36-2.08-.72-3-1.06s-1.73-.67-2.43-1a6.4,6.4,0,0,1-1.55-1c-.33-.3-.45-.53-.39-.62s.95.18,2.35.52c.69.17,1.56.38,2.5.65s2,.59,3,.94C342.53,178.27,345.9,179.77,345.75,180.2Z"/><path class="cls-3" d="M344.31,172.42c0,.23-.64.42-1.65.48a16.55,16.55,0,0,1-3.92-.31,15.64,15.64,0,0,1-3.74-1.21c-.92-.44-1.42-.85-1.34-1.06.16-.44,2.52.09,5.4.65S344.32,172,344.31,172.42Z"/><path class="cls-3" d="M347.36,166.2c0,.45-2.57.62-5.65.2s-5.49-1.24-5.41-1.69,2.59-.34,5.62.06S347.4,165.74,347.36,166.2Z"/><path class="cls-3" d="M353.49,162c-.06.44-3.45.32-7.48-.7a32.17,32.17,0,0,1-5-1.67c-.32-.15-.58-.26-.85-.41a2.25,2.25,0,0,1-.64-.51.78.78,0,0,1-.21-.52c0-.13.05-.2.1-.21s.24.15.52.24a4.51,4.51,0,0,0,.56.14c.23,0,.55.09.87.16,1.32.26,3.11.69,5.09,1.18C350.35,160.67,353.56,161.51,353.49,162Z"/><path class="cls-3" d="M356.1,156.68c-.1.44-3.48,0-7.57-.76s-7.38-1.68-7.3-2.13,3.49-.29,7.61.51S356.2,156.23,356.1,156.68Z"/><path class="cls-3" d="M354.88,149.55c-.1.45-2.67.23-5.76-.34s-5.57-1.28-5.51-1.73,2.67-.47,5.8.11S355,149.11,354.88,149.55Z"/><path class="cls-3" d="M359.14,143.09c0,.44-3.17,1-7.15.76s-7.07-1.28-7-1.72,3.24-.18,7.09.07S359.11,142.62,359.14,143.09Z"/><path class="cls-3" d="M360.83,136.1c-.11.45-2.89.18-6.29-.08s-6.2-.42-6.23-.88,2.81-1,6.35-.76S360.93,135.67,360.83,136.1Z"/></g></g></svg>